<svg xmlns="http://www.w3.org/2000/svg" viewBox="0 0 4000 4000"><defs><style>.cls-1{fill:#65c8d0;}.cls-2{fill:#e6e6e6;}</style></defs><g id="air"><g id="air-2" data-name="air"><path class="cls-1" d="M410.81,2842.51l725.62-1256.85H548.72a79.62,79.62,0,0,1,0-159.24h679.66L2000,90,2771.6,1426.42h679.66a79.62,79.62,0,0,1,0,159.24H2863.54l725.65,1256.85Zm2902.54-159.25-633.7-1097.6H1320.35l-633.7,1097.6ZM2587.7,1426.42,2000,408.46l-587.72,1018Z"/><path class="cls-2" d="M2000,135.21l758.54,1313.84h692.73a57,57,0,0,1,0,114H2824.35L3550,2819.88H450L1175.62,1563H548.72a57,57,0,1,1,0-114h692.72L2000,135.21M1373.08,1449.05H2626.89L2000,363.21,1373.08,1449.05M647.46,2705.89H3352.54L2692.71,1563H1307.29L647.46,2705.89M2000,44.7l-39.19,67.88L1215.32,1403.79H548.72a102.25,102.25,0,0,0,0,204.5h548.53l-686.44,1189-39.19,67.88H3628.38l-39.19-67.88-686.46-1189h548.53a102.25,102.25,0,0,0,0-204.5h-666.6L2039.18,112.58,2000,44.7ZM1451.46,1403.79,2000,453.72l548.52,950.07Zm-118,204.5H2666.59l607.57,1052.35H725.84l607.57-1052.35Z"/><path class="cls-1" d="M1268.67,3855.48l4.89-9.8c9.52-19,49.34-104.12,118.35-252.88,69.16-149.1,141.91-307.82,216.22-471.75l3-6.64h86.44l3,6.7c73.24,164,146.26,325.23,217,479.19,70.7,153.81,108,235,111,241.2l4.66,9.86-107,55.35-4.46-12c-1-2.66-7.89-19-35.15-81.75-21.24-48.88-49.61-112.54-84.38-189.29H1489.79c-38,84-66.42,147.07-86.84,192.72-21,46.92-32.67,73.36-34.77,78.59l-4.73,11.77Zm492.66-324.56c-17.61-40.49-36.12-82.67-55.12-125.63-18.87-42.67-38.69-87.3-59-132.95-16.7,36.72-36.09,80-57.8,129-22.63,51.11-42.06,94.58-57.88,129.54Z"/><path class="cls-2" d="M1690.25,3125.72q110.48,247.4,217.09,479.3t111,241.31l-86,44.46q-2.26-6.08-35.38-82.3t-87.46-196.11H1482.49q-58.24,128.73-89.87,199.42t-34.94,79l-74-40.05Q1298,3822,1402.17,3597.56t216.27-471.84h71.81m-176.32,416.51h264.64l-.22-.55q-29.28-67.44-61.8-141T1648.26,3247l-2.2.49q-27.81,60.72-67,149.29t-64.83,144.88l-.26.55m191-439.14H1603.85l-6,13.29c-74.31,163.91-147,322.6-216.18,471.66-69,148.66-108.73,233.64-118.21,252.59l-9.79,19.59,19.26,10.42,74,40.05,22.31,12.08,9.46-23.55c2-5.1,13.68-31.4,34.6-78.18,19.85-44.39,47.31-105.34,83.81-186H1795c33.37,73.74,60.7,135.09,81.29,182.49,28.47,65.51,34.11,79,34.94,81.2l8.91,23.93,22.68-11.74,86-44.47,19.37-10-9.3-19.73c-2.92-6.18-40.25-87.3-110.94-241.1-70.78-154-143.79-315.14-217-479.07l-6-13.41ZM1549,3519.6c14.41-32,31.39-70,50.7-113.63,17.34-39.15,33.19-74.63,47.37-106,16.75,37.64,33.1,74.46,48.78,109.92,16.54,37.39,32.7,74.17,48.21,109.74Z"/><path class="cls-1" d="M2120.14,3887.19l.73-12c.25-4,.68-26,1.36-108.22.55-66.27.83-121.8.83-165.07,0-37-.09-79.12-.27-125.07-.19-45.67-.84-99.43-1.94-159.77l-.2-11.51h110.27l-.16,11.47c-.7,50-1.35,100.08-1.94,148.85-.55,45.93-.82,87.43-.82,123.32,0,85.52.46,155,1.38,206.4,1.07,60.89,1.38,78.9,1.38,80.3v11.31ZM2115.88,3221V3103.36h119.85V3221Z"/><path class="cls-2" d="M2224.42,3114.67v95h-97.23v-95h97.23m-5,202.18q-1.11,79.55-1.93,148.87t-.83,123.46q0,128.73,1.38,206.6t1.38,80.1h-87.27q.54-8.84,1.38-108.82t.83-165.17q0-56.89-.28-125.12t-1.93-159.92h87.27m27.6-224.8H2104.57v140.26H2247V3092.05Zm-4.65,202.17H2109.13l.41,23c1.09,60.31,1.74,114,1.93,159.6.19,46,.28,88.07.28,125,0,43.2-.28,98.71-.83,165-.71,86.33-1.14,104.48-1.34,107.62l-1.48,24h134v-22.62c0-1.52-.28-18.07-1.38-80.5-.92-51.38-1.38-120.76-1.38-206.2,0-35.82.28-77.26.83-123.19.58-48.94,1.23-99,1.93-148.82l.32-23Z"/><path class="cls-1" d="M2379.63,3887.19v-11.31c0-6.5.38-28,1.11-62.11.73-34.88,1.1-95.2,1.1-179.29,0-33.54-.18-80.5-.55-143.56-.37-61.2-.93-119.71-1.66-173.92l-.15-11.46h108.4v76.88c36.33-19.93,72.58-37.64,108-52.77,40.82-17.44,74.07-29.52,98.84-35.91l11.42-2.94,21.36,99.7L2716.7,3393c-19.75,4.67-50.62,14.76-91.75,30-39.61,14.65-85.71,34.31-137.12,58.45-.07,8.26-.23,23.44-.5,48.44-.37,32.52-.56,63.42-.56,91.85,0,43.38.47,95.36,1.38,154.5,1,62.35,1.39,93.07,1.39,99.61v11.31Z"/><path class="cls-2" d="M2697.53,3304.7,2714.1,3382q-30.39,7.18-93.08,30.39t-144.45,61.86q0,6.09-.56,55.52t-.55,92q0,65.17,1.38,154.67t1.38,99.43h-87.28q0-9.39,1.11-61.87t1.1-179.53q0-51.37-.55-143.62t-1.66-174h85.63v84l.55.55a1236.74,1236.74,0,0,1,123.18-61.32q60.76-26,97.23-35.35m17.18-27.8-22.83,5.89c-25.32,6.53-59.12,18.79-100.47,36.45-30.28,13-61.18,27.77-92.22,44.22v-69.24H2368l.31,22.94c.73,54.19,1.29,112.68,1.66,173.83.37,63,.55,110,.55,143.49,0,84-.37,144.26-1.1,179.06s-1.11,55.67-1.11,62.34v22.62h132.53v-22.62c0-6.61-.43-37.38-1.38-99.78-.92-59.09-1.38-111-1.38-154.32,0-28.4.18-59.25.55-91.72.21-19,.35-32.4.44-41.35,48.53-22.63,92.13-41.14,129.79-55.07,40.71-15.07,71.14-25,90.43-29.59l21.56-5.09-4.64-21.67L2719.65,3300l-4.94-23.06Z"/></g></g></svg>