<svg xmlns="http://www.w3.org/2000/svg" viewBox="0 0 4000 4000"><defs><style>.cls-1{fill:#f7931e;}.cls-2{fill:#e6e6e6;}</style></defs><g id="earth"><g id="earth-2" data-name="earth"><path class="cls-1" d="M1228.38,2593.56H548.72a79.63,79.63,0,0,1,0-159.25h587.71L410.81,1177.47H3589.19L2863.54,2434.31h587.74a79.63,79.63,0,0,1,0,159.25H2771.6L2000,3930Zm771.61,1018,587.71-1018H1412.27Zm679.66-1177.2,633.7-1097.6H686.65l633.7,1097.6Z"/><path class="cls-2" d="M3550,1200.1,2824.35,2456.94h626.93a57,57,0,1,1,0,114H2758.53L2000,3884.77,1241.44,2570.93H548.72a57,57,0,1,1,0-114h626.9L450,1200.1H3550M1307.29,2456.94H2692.71l659.83-1142.85H647.46l659.83,1142.85M2000,3656.76l626.9-1085.83H1373.08L2000,3656.76M3628.38,1154.84H371.62l39.19,67.88,686.43,1189H548.72a102.25,102.25,0,1,0,0,204.49h666.6L1960.8,3907.39l39.19,67.88,39.19-67.88,745.48-1291.21h666.62a102.25,102.25,0,1,0,0-204.49H2902.73l686.46-1189,39.19-67.88ZM725.84,1359.34H3274.16L2666.59,2411.69H1333.41L725.84,1359.34Zm725.62,1256.84H2548.51L2000,3566.26l-548.53-950.08Z"/><path class="cls-1" d="M1260.69,917.26c-3.55,0-30.36-.2-73.56-.56-46.18-.36-103.21-.55-169.49-.55-45.87,0-89,.19-128.33.55-38.39.37-71.61.56-98.71.56H778.89l.41-11.7c.73-21.28,1.37-67.83,1.92-138.36.55-70.7.83-144.83.83-220.32,0-40.81-.18-94.82-.55-165.1-.37-68.44-1.12-139.95-2.21-212.57l-.17-11.48H790.6c25.78,0,57.88.18,98.16.55,38.69.37,79.45.56,121.14.56,70.33,0,128.1-.19,171.7-.56s68.15-.55,71.91-.55h11.32v99.41h-11.32c-3.77,0-26.49-.27-69.47-.83-42.29-.55-95.68-.83-158.67-.83-27,0-54.32.1-81.12.28-20,.14-37.37.23-51.75.26-.06,37.66-.43,75.78-1.1,113.47-.66,36.71-1,72.27-1.09,105.88,13.8,0,29.49.12,47.6.27,21.81.18,42.13.27,60.39.27,64.48,0,122.89-.28,173.61-.83,51.52-.55,78.21-.83,81.6-.83h11.32v98.86h-11.32c-3,0-32.87-.27-91.25-.83-57.52-.55-110.82-.83-158.43-.83-17.41,0-38.08.1-63.17.28-18.7.15-35.58.23-50.36.27,0,64.34.2,116.22.55,154.31.31,34.87.63,65.65,1,91.71,19.4.29,42.18.51,67.89.66,30.24.18,62.93.27,99.92.27,54.88,0,101.4-.18,138.26-.55,41-.4,58.66-.55,62.81-.55H1272v99.41Z"/><path class="cls-2" d="M1253.51,169v76.79q-5.52,0-69.32-.83t-158.82-.83q-41.43,0-81.2.28t-63,.27q0,62.43-1.1,124.57T879,486.67q24.87,0,58.84.28t60.48.28q97.23,0,173.73-.83t81.48-.83V561.8q-4.42,0-91.14-.83t-158.54-.83q-26.52,0-63.25.28t-61.6.27q0,104.41.56,165.72t1.1,102.75q32.6.55,79,.83t100,.27q82.31,0,138.38-.55t62.69-.55v76.78q-5,0-73.47-.55t-169.58-.55q-70.17,0-128.44.55t-98.6.55q1.11-32,1.93-138.65t.83-220.41q0-62.42-.55-165.16T790.6,169q39.23,0,98,.56t121.25.55q105.51,0,171.8-.55t71.81-.56m22.63-22.62h-22.63c-3.83,0-28.26.19-72,.55-43.58.37-101.32.55-171.61.55-41.65,0-82.37-.18-121-.55-40.3-.37-72.44-.55-98.27-.55h-23l.35,23c1.09,72.54,1.83,144,2.21,212.46.37,70.2.55,124.19.55,165,0,75.45-.28,149.54-.83,220.24-.55,70.43-1.19,116.88-1.92,138l-.81,23.4H790.6c27.15,0,60.39-.19,98.82-.55,39.23-.37,82.37-.56,128.22-.56,66.26,0,123.26.19,169.4.56,43.22.35,70.07.55,73.65.55h22.63v-122h-22.63c-4.21,0-21.85.16-62.91.56-36.83.36-83.31.55-138.16.55-37,0-69.63-.09-99.85-.28-21-.12-40-.29-56.78-.5-.28-23.5-.56-50.52-.83-80.65-.32-35.83-.51-83.84-.54-142.93,11.94,0,25-.13,39.13-.24,25.08-.18,45.72-.27,63.08-.27,47.56,0,100.83.28,158.32.83,58.45.55,88.34.83,91.36.83h22.63V462.94h-22.63c-3.41,0-30.14.27-81.72.83-50.7.55-109.07.83-173.49.83-18.22,0-38.5-.09-60.29-.28-13.36-.1-25.41-.18-36.35-.22.12-30.18.47-61.83,1.05-94.41.6-34,1-68.36,1.07-102.39,11.92,0,25.47-.12,40.55-.23,26.77-.18,54-.27,81-.27,62.94,0,116.28.27,158.52.82,43,.56,65.79.83,69.62.83h22.63v-122Z"/><path class="cls-1" d="M1610.88,927.2a525.05,525.05,0,0,1-93.16-8.47c-31.39-5.67-58.9-14-81.77-24.63-30.94-14.3-56.42-34.2-75.7-59.12-19.71-25.48-29.7-56.44-29.7-92,0-37.56,11.76-70.58,35-98.16,22.63-26.88,54.29-48.85,94.1-65.31,24.47-10.17,57.43-19.4,98-27.44,37.15-7.36,79.64-13.13,126.47-17.17-2.88-21.67-9.09-39.85-18.54-54.16-10.8-16.37-27.09-29.07-48.4-37.73a213.93,213.93,0,0,0-51.43-13.36c-19.28-2.68-42.17-4-68-4-16.21,0-30.19.37-41.55,1.08-11,.71-26.5,1.61-47.31,2.77l-13.48.75L1406.88,334l9.37-.61c5.78-.38,17.18-1.05,33-1.94,16.62-.93,39.42-1.4,67.75-1.4,44.22,0,84.31,4.68,119.18,13.91,35.66,9.45,65.76,25.08,89.47,46.45,22.26,20.31,39.24,45.65,50.51,75.37,11.12,29.34,16.75,71.85,16.75,126.37,0,89.94-.18,165.05-.55,223.24-.35,54.26-.55,88.06-.55,92.73v10.26l-10.21,1c-3.8.38-20.67,1.74-51.59,4.16C1699.21,926,1659.14,927.2,1610.88,927.2Zm74.47-303.59c-16.59,1.4-40.83,4.34-72.34,8.77-39.47,5.57-73,13.62-99.69,23.94l-.11,0a147.89,147.89,0,0,0-51.08,32.34c-13.84,13.37-20.57,29.5-20.57,49.31,0,22.39,5.74,39.71,17.57,53,12.25,13.76,29.42,24.49,51,31.91a285.59,285.59,0,0,0,57.68,13,545.7,545.7,0,0,0,67.91,4.05c7.28,0,16.25-.18,26.67-.54q11-.37,22.84-.76c0-6.5.12-15.36.21-25.6.19-22,.28-51.53.28-87.73V677.8C1685.74,662,1685.61,644.14,1685.35,623.61Z"/><path class="cls-2" d="M1517,341.39q65.17,0,116.28,13.54T1718,398.84q31.49,28.73,47.51,71t16,122.36q0,137-.55,223.17t-.56,92.8q-5.52.55-51.37,4.15t-118.21,3.59a512.06,512.06,0,0,1-91.15-8.29q-45.86-8.28-79-23.75-44.21-20.43-71.54-55.79T1341.86,743q0-52.49,32.32-90.87T1463.94,590q35.89-14.91,95.84-26.79t136.72-17.95q-3.32-43.1-21.54-70.71t-53.59-42a223.81,223.81,0,0,0-54.13-14.09q-29.84-4.14-69.6-4.14-24.87,0-42.26,1.1t-47.23,2.77l8.84-73.47q8.28-.56,32.86-1.94t67.12-1.38m118.77,509.87q11,0,27.06-.56t33.7-1.1q0-3.86.28-36.46t.27-87.83V677.8q0-28.71-.55-66.29-24.32,1.13-85.07,9.67t-102.19,24.58a158.65,158.65,0,0,0-55,34.8q-24,23.21-24,57.45,0,37.57,20.44,60.49t55.79,35.08a294.76,294.76,0,0,0,59.94,13.53,555,555,0,0,0,69.33,4.15M1517,318.77c-28.54,0-51.55.47-68.38,1.41-15.81.89-27.24,1.57-33.08,1.95l-18.74,1.23L1394.52,342l-8.84,73.47-3.22,26.79,26.94-1.49c21.17-1.18,36.24-2.06,47.42-2.78s24.84-1.06,40.82-1.06c25.35,0,47.72,1.33,66.49,3.93a202.9,202.9,0,0,1,48.68,12.62c19.46,7.91,33.6,18.87,43.26,33.5,6.79,10.28,11.74,22.93,14.81,37.76-42.45,4-81.21,9.45-115.5,16.24-41.26,8.19-75,17.64-100.12,28.1-41.47,17.14-74.59,40.18-98.39,68.47-25,29.67-37.64,65.14-37.64,105.44,0,38.12,10.79,71.4,32.08,98.91,20.39,26.36,47.28,47.39,79.91,62.48,23.74,11.07,52.17,19.65,84.49,25.49a537.27,537.27,0,0,0,95.17,8.64c48.56,0,88.92-1.23,120-3.66s48-3.8,51.82-4.18l20.41-2V908.15c0-4.62.2-38.4.55-92.65.37-58.17.56-133.3.56-223.32,0-56.68-5.72-99.32-17.49-130.37-11.91-31.41-29.88-58.21-53.42-79.68l0-.05,0-.05c-25-22.58-56.73-39.06-94.14-49-35.82-9.48-76.89-14.28-122.08-14.28Zm118.77,509.86a532.76,532.76,0,0,1-66.5-4,273.49,273.49,0,0,1-55.34-12.45l0,0h0c-19.74-6.78-35.3-16.45-46.24-28.73-9.9-11.1-14.71-26-14.71-45.44,0-16.58,5.6-30,17.12-41.17A136.73,136.73,0,0,1,1517.18,667l.11,0,.11,0c25.87-10,58.57-17.84,97.19-23.28,24.34-3.43,44.26-6,59.59-7.56.17,15.41.25,29.21.25,41.77v47.51c0,36.24-.1,65.72-.28,87.64-.05,5.37-.09,10.32-.12,14.74l-12,.4c-10.31.36-19.16.54-26.3.54Z"/><path class="cls-1" d="M1893.93,918.36V907.05c0-6.49.38-28,1.1-62.11.74-34.86,1.11-95.18,1.11-179.29,0-33.48-.18-80.44-.55-143.56-.37-61.14-.93-119.65-1.66-173.92l-.16-11.46h108.41v76.88c36.33-19.93,72.58-37.65,108-52.77,40.82-17.44,74.08-29.52,98.85-35.91l11.41-2.94,21.37,99.69L2231,424.21c-19.75,4.67-50.62,14.76-91.76,30-39.61,14.65-85.71,34.31-137.11,58.45-.07,8.26-.23,23.44-.51,48.44-.36,32.49-.55,63.39-.55,91.85,0,43.4.47,95.38,1.38,154.5,1,62.39,1.38,93.11,1.38,99.61v11.31Z"/><path class="cls-2" d="M2211.82,335.87l16.57,77.33q-30.37,7.19-93.08,30.39t-144.45,61.86q0,6.09-.55,55.52t-.55,92q0,65.19,1.38,154.68t1.38,99.43h-87.28q0-9.39,1.11-61.87t1.1-179.53q0-51.37-.55-143.62t-1.66-174h85.62v84l.55.55a1236.87,1236.87,0,0,1,123.19-61.32q60.77-26,97.22-35.35m17.19-27.8L2206.17,314c-25.32,6.53-59.12,18.79-100.46,36.45-30.29,12.95-61.19,27.77-92.22,44.22V325.39H1882.31l.31,22.94c.73,54.17,1.28,112.66,1.65,173.83.37,63.05.55,110,.55,143.49,0,84-.37,144.25-1.1,179.06s-1.11,55.67-1.11,62.34v22.62h132.54V907.05c0-6.61-.43-37.38-1.39-99.78-.91-59.1-1.38-111-1.38-154.33,0-28.38.19-59.24.55-91.71.21-19.05.36-32.4.44-41.35,48.53-22.64,92.14-41.14,129.8-55.07,40.7-15.07,71.13-25,90.43-29.59l21.56-5.1-4.64-21.66L2234,331.13,2229,308.07Z"/><path class="cls-1" d="M2631,921.68c-77.81,0-137.83-16.75-178.39-49.78-41.25-33.59-62.17-85.33-62.17-153.77,0-40.73.28-85,.83-131.61.52-43.88.8-98.53.82-162.56h-92.8V336.71H2397V205.79h102.72V336.71h197.76V424H2499.69c-.12,11.94-.37,31.31-.76,57.9-.55,38.07-.82,66.64-.82,84.91v137c0,44.1,11.61,76,34.53,94.83,23.57,19.37,61.3,29.19,112.14,29.19,6.8,0,14.71-.09,23.52-.27,9.66-.19,15.35-.28,17.91-.28h13l-13,91.48-8.43,1.19c-1.93.27-6.12.69-20.22,1.21C2647.08,921.49,2638.36,921.68,2631,921.68Z"/><path class="cls-2" d="M2488.45,217.1V348h197.76v64.63H2488.45q0,11.6-.83,69.05t-.83,85.07v137q0,71.81,38.67,103.57t119.32,31.76q9.94,0,23.75-.27t17.68-.28l-9.94,70.16q-3.89.54-19.06,1.1t-26.24.55q-113.25,0-171.24-47.23t-58-145q0-61.32.83-131.47t.83-174h-92.8V348h97.77V217.1h80.1m22.63-22.62H2385.73V325.39H2288V435.28h92.79c0,59.07-.33,109.82-.81,151.11-.55,46.61-.83,90.94-.83,131.74,0,72,22.32,126.7,66.34,162.55,21.69,17.66,48.63,31,80.08,39.69C2555.89,928.74,2591.36,933,2631,933c7.53,0,16.38-.19,27.05-.57,14.47-.53,19-1,21.39-1.31l16.87-2.37,2.39-16.86,9.94-70.15,3.66-25.81h-26.06c-2.68,0-8.26.09-18.12.29-8.75.18-16.59.27-23.31.27-48.15,0-83.46-9-105-26.62-9.85-8.09-17.1-18.62-22.17-32.21-5.47-14.64-8.24-32.77-8.24-53.88v-137c0-18.2.28-46.71.83-84.74.28-19.67.49-35.19.63-46.75h198V325.39H2511.08V194.48Z"/><path class="cls-1" d="M3141.36,918.36l.39-11.68c.37-11.14.83-44.6,1.38-99.45.54-55.16.82-92,.82-109.54,0-18.76-.09-46.48-.27-84.74-.19-37.11-.47-64.65-.83-81.85-1-39.51-8.35-67.86-21.74-84.21-12.78-15.58-36.23-23.48-69.69-23.48-19.5,0-45.26,6.11-76.59,18.16-30.36,11.67-62.82,27.52-96.57,47.14l2.24,429.65H2770.24l.29-11.6c.37-14.53.83-72.9,1.38-173.5.55-101,.83-185.28.83-250.45,0-42.16-.09-95-.28-161.55-.19-65.23-.84-140.56-1.93-223.88l-.15-11.46h110.14l-2.16,307.25c45.75-24.89,84.29-42.73,114.72-53.1,34.54-11.76,64.76-17.72,89.82-17.72,50.1,0,91,16.12,121.67,47.93s46,75.32,46,129.65c0,46.25-.28,86.73-.83,120.33s-.82,61-.82,81.85c0,33.64.37,72.42,1.1,115.26.73,43.18,1.29,73.26,1.66,89.42l.26,11.57Z"/><path class="cls-2" d="M2869.12,97.23l-2.21,314.32.56.55q79-44.19,129.26-61.32t86.17-17.12q70.71,0,113.52,44.47t42.81,121.8q0,69.6-.83,120.15t-.83,82q0,50.26,1.11,115.45t1.66,89.49h-87.28q.54-16.57,1.38-99.71t.83-109.65q0-28.71-.28-84.79t-.83-82q-1.65-63.51-24.3-91.14t-78.45-27.62q-31.48,0-80.65,18.91t-103.85,51.24l2.21,424.8h-87.28q.55-21.54,1.39-173.73t.82-250.51q0-64.08-.27-161.58t-1.94-224h87.28m22.79-22.62h-133l.3,22.92c1.09,83.3,1.74,158.59,1.93,223.77.19,66.71.28,119.55.28,161.51,0,65.19-.28,149.43-.83,250.39-.68,125.21-1.12,163.34-1.37,173.28l-.59,23.19h133.23l-.12-22.74-2.14-411.7c31.19-17.82,61.17-32.3,89.27-43.1,30-11.55,54.44-17.4,72.53-17.4,29.91,0,50.42,6.5,61,19.34,8.08,9.86,18,31.29,19.18,77.35.36,17.12.64,44.57.82,81.59.19,38.23.28,65.93.28,84.68,0,17.5-.28,54.31-.83,109.42-.68,68.17-1.12,91.57-1.37,99.2l-.76,23.36h133.81l-.53-23.14c-.37-16-.93-46.1-1.66-89.35-.73-42.78-1.1-81.5-1.1-115.07,0-20.79.28-48.27.82-81.66.56-33.67.84-74.22.84-120.52,0-57.36-16.53-103.62-49.14-137.49C3179.87,328.33,3136.2,311,3082.9,311c-26.67,0-57.24,6-93.47,18.33-27.19,9.27-60.6,24.31-99.63,44.85l1.95-276.82.16-22.78Z"/></g></g></svg>