<svg id="fire" xmlns="http://www.w3.org/2000/svg" viewBox="0 0 4000 4000"><defs><style>.cls-1{fill:red;}.cls-2{fill:#e6e6e6;}</style></defs><g id="fire-2" data-name="fire"><path class="cls-1" d="M410.81,2844.86,2000,92.31,3589.19,2844.86Zm2902.55-159.25L2000,410.81,686.64,2685.61Z"/><path class="cls-2" d="M2000,137.56,3550,2822.23H450L2000,137.56M647.45,2708.24h2705.1L2000,365.56,647.45,2708.24M2000,47.06l-39.19,67.88L410.81,2799.6l-39.19,67.88H3628.38l-39.19-67.88-1550-2684.66L2000,47.06ZM725.83,2663,2000,456.06,3274.17,2663Z"/><path class="cls-1" d="M1169.84,3889.54l.39-11.69c.73-22,1.38-61.62,1.93-117.67.55-56.26.82-138.27.82-243.77,0-40.91-.18-94.74-.55-164.56-.37-68-1.11-139.15-2.21-211.45l-.17-11.49h11.49c26.55,0,58.84.18,98.7.55,38.27.37,79.58.56,122.81.56,64.51,0,118.19-.19,159.54-.56,44.86-.38,66.37-.55,71.91-.55h11.32v99.41H1634.5c-6.37,0-30.09-.27-72.51-.83-41.76-.55-93.75-.83-154.52-.83-27.14,0-52.67.1-75.87.28-17.48.14-33.44.23-47.62.26-.06,38.26-.42,80-1.09,124.21-.66,43.16-1,82.36-1.09,116.73l26.88.22c20.19.18,40.42.28,60.12.28,60,0,117.51-.28,170.85-.83s83.42-.83,89.33-.83h11.31v98.86H1629c-7,0-41.33-.28-102-.83s-115.64-.83-163.69-.83c-14.86,0-32.54.09-54,.27l-27.45.23c0,60.84.3,119.13.82,173.41.6,62.76,1,107.25,1.38,140l.12,11.43Z"/><path class="cls-2" d="M1634.5,3140.22V3217q-9.39,0-72.36-.83t-154.67-.83q-41.43,0-76,.28t-58.83.27q0,62.43-1.1,135.34t-1.11,128.16q6.63,0,38.12.27t60.21.28q90.59,0,171-.83t89.21-.83v76.23q-10.5,0-101.92-.83t-163.79-.82q-22.65,0-54.13.27t-38.67.28q0,97.77.83,184.78t1.38,140h-91.14q1.1-33.15,1.93-117.94t.83-243.88q0-62.41-.56-164.62t-2.2-211.57q40.31,0,98.6.56t122.91.55q96.66,0,159.64-.55t71.81-.56m22.63-22.62H1634.5c-5.64,0-26.5.16-72,.55-41.4.37-95,.55-159.44.55-43.12,0-84.4-.18-122.7-.55-39.91-.37-72.23-.55-98.81-.55h-23l.35,23c1.1,72.18,1.84,143.29,2.21,211.35.37,69.9.55,123.71.55,164.49,0,105.48-.28,187.46-.83,243.66-.54,56-1.19,95.47-1.92,117.41l-.77,23.38h137.4l-.24-22.87c-.35-33.26-.79-77.75-1.39-140-.48-51-.75-105.4-.81-162.07l16.23-.14c21.45-.19,39.1-.28,53.93-.28,48,0,103,.28,163.59.83,61.58.56,95,.83,102.12.83h22.62V3455.67H1629c-6,0-35.26.27-89.45.83-53.25.54-110.69.82-170.73.82-19.64,0-39.83-.09-60-.27l-15.65-.13c.12-31.56.47-66.87,1.06-105.33.6-40,1-77.93,1.07-113.11,11.25,0,23.43-.12,36.43-.23,23.2-.18,48.69-.27,75.77-.27,60.75,0,112.69.28,154.37.82,42.48.56,66.25.83,72.66.83h22.63v-122Z"/><path class="cls-1" d="M1774.51,3889.54l.74-12c.24-4,.68-26,1.36-108.22.55-66.3.83-121.84.83-165.07,0-37.08-.1-79.16-.28-125.07-.19-45.64-.84-99.39-1.93-159.76l-.21-11.52h110.27l-.16,11.47c-.7,49.9-1.35,100-1.93,148.85-.55,46-.83,87.48-.83,123.32,0,85.52.46,155,1.38,206.4,1.06,60.12,1.38,78.88,1.38,80.3v11.31Zm-4.26-666.19V3105.71H1890.1v117.64Z"/><path class="cls-2" d="M1878.79,3117v95h-97.22v-95h97.22m-5,202.18q-1.11,79.55-1.94,148.87t-.82,123.46q0,128.73,1.38,206.6t1.38,80.1h-87.28q.54-8.83,1.38-108.82t.83-165.17q0-56.89-.28-125.12t-1.93-159.92h87.28m27.6-224.8H1758.94v140.26h142.48V3094.4Zm-4.66,202.18H1763.5l.42,23c1.09,60.33,1.74,114,1.93,159.61.18,46,.27,88.08.27,125,0,43.18-.28,98.69-.82,165-.72,86.33-1.15,104.48-1.34,107.62l-1.48,24h134v-22.63c0-1.51-.28-18.06-1.38-80.5-.91-51.39-1.38-120.76-1.38-206.2,0-35.8.28-77.25.83-123.19.59-49.14,1.24-99.21,1.93-148.82l.32-22.94Z"/><path class="cls-1" d="M2025,3889.54v-11.31c0-6.49.39-28,1.11-62.11.73-34.86,1.1-95.18,1.1-179.29,0-33.48-.18-80.44-.55-143.56-.37-61.14-.92-119.65-1.65-173.92l-.16-11.46h108.4v76.88c36.34-19.93,72.59-37.64,108-52.77,40.82-17.44,74.07-29.52,98.84-35.91l11.42-2.94,21.36,99.7-10.78,2.54c-19.74,4.67-50.61,14.76-91.75,30-39.61,14.65-85.71,34.31-137.11,58.45-.08,8.26-.24,23.44-.51,48.45-.37,32.53-.55,63.43-.55,91.85,0,43.36.46,95.34,1.38,154.49.95,62.39,1.38,93.11,1.38,99.61v11.31Z"/><path class="cls-2" d="M2342.85,3307.05l16.57,77.33q-30.39,7.18-93.08,30.39t-144.45,61.87q0,6.08-.55,55.51t-.56,92q0,65.17,1.39,154.67t1.38,99.43h-87.28q0-9.39,1.1-61.87t1.11-179.53q0-51.37-.56-143.62t-1.65-174h85.62v84l.55.55a1238,1238,0,0,1,123.19-61.32q60.75-26,97.22-35.35m17.18-27.8-22.83,5.89c-25.32,6.53-59.12,18.79-100.46,36.46-30.29,12.94-61.19,27.76-92.22,44.21v-69.23H2013.34l.3,22.93c.73,54.24,1.29,112.73,1.66,173.83.37,63,.55,110,.55,143.49,0,84-.37,144.26-1.1,179.06s-1.11,55.67-1.11,62.34v22.62h132.53v-22.62c0-6.59-.42-37.37-1.38-99.78-.92-59.06-1.38-111-1.38-154.32,0-28.39.19-59.25.55-91.72.21-19,.35-32.4.44-41.35,48.53-22.64,92.14-41.14,129.79-55.07,40.71-15.07,71.14-25,90.44-29.59l21.56-5.09-4.65-21.67L2365,3302.31l-4.94-23.06Z"/><path class="cls-1" d="M2766,3891.75c-59.94,0-112.95-7.93-157.59-23.56-45-15.74-82.46-37.85-111.49-65.72-24.83-23.31-46.18-53.42-63.45-89.49-17.42-36.35-26.25-77.21-26.25-121.45,0-43.13,6.56-82.73,19.49-117.71s32.57-67.94,58.38-97.92c22.8-26.27,51.42-46.8,85.09-61a267.42,267.42,0,0,1,104.67-21.33c35.48,0,67.53,5.46,95.24,16.23a196.58,196.58,0,0,1,73.24,49.79c22.75,24.7,40.29,55.35,52.17,91.15,11.73,35.41,17.87,78.3,18.25,127.49l.09,11.4H2514.71c1.72,32.79,9.54,63.39,23.32,91.09,15.2,30.58,38.93,56.29,70.52,76.42,20.24,12.91,43.64,22.74,69.58,29.23,26.21,6.55,58.37,9.88,95.59,9.88,20.65,0,39.83-.55,57-1.64,17.66-1.11,28.12-1.83,32-2.18l14.15-1.3-13,96.17-8.63,1.09c-1.21.15-4.9.62-30.07,2C2808.35,3891.28,2788.44,3891.75,2766,3891.75Zm37.63-386.66c-6.64-37-20.6-66.62-41.61-88.24-23.22-23.9-53.18-35.51-91.59-35.51-38.58,0-69.81,11.89-95.49,36.37-23,21.92-40,51.27-50.56,87.38Z"/><path class="cls-2" d="M2674.84,3304.84q51.38,0,91.15,15.47a184.58,184.58,0,0,1,69.05,47q32.58,35.35,49.71,87t17.68,124H2503q.55,58.56,24.86,107.44t74.58,80.92q32,20.45,72.91,30.66t98.33,10.22q31.49,0,57.72-1.66t32.32-2.21l-9.94,73.47q-4.43.57-29.28,1.94t-58.55,1.38q-88.39,0-153.85-22.93t-107.44-63.25q-35.91-33.68-61-86.17t-25.13-116.56q0-63,18.78-113.79t56.34-94.46q32.59-37.56,80.93-58a255,255,0,0,1,100.26-20.44m-165.17,211.57h307.14q-8.85-68.49-46.68-107.44T2670.42,3370q-61.87,0-103.3,39.5t-57.45,106.89m165.17-234.2a278.66,278.66,0,0,0-109.07,22.23c-35.29,14.92-65.3,36.46-89.21,64l0,0,0,0c-26.7,31-47,65.12-60.43,101.38s-20.18,77.16-20.18,121.63c0,45.95,9.2,88.45,27.36,126.34,17.87,37.32,40,68.55,65.87,92.81,30.19,29,69.07,51.92,115.54,68.19,45.83,16.05,100.11,24.19,161.32,24.19,22.66,0,42.78-.47,59.8-1.41,22.66-1.25,28.39-1.77,30.85-2.08l17.27-2.17,2.33-17.24,9.94-73.47,3.81-28.16-28.29,2.59c-3.73.34-14.39,1.07-31.68,2.16-16.94,1.07-35.88,1.62-56.3,1.62-36.3,0-67.53-3.22-92.83-9.55-24.77-6.18-47-15.53-66.24-27.78-29.85-19-52.21-43.21-66.49-71.92a216.07,216.07,0,0,1-21.24-74.75h398.31l-.18-22.8c-.38-50.36-6.72-94.42-18.82-130.95-12.39-37.35-30.74-69.38-54.56-95.22l0,0,0,0a207.81,207.81,0,0,0-77.41-52.63c-29-11.29-62.46-17-99.35-17ZM2540,3493.78c10-27.58,24.36-50.34,42.77-67.89,23.47-22.37,52.15-33.24,87.68-33.24,35.19,0,62.5,10.49,83.48,32.08,16.85,17.35,28.84,40.51,35.79,69.05Z"/></g></svg>