<svg xmlns="http://www.w3.org/2000/svg" viewBox="0 0 4000 4000"><defs><style>.cls-1{fill:red;}.cls-2{fill:#e6e6e6;}.cls-3{fill:#65c8d0;}.cls-4{fill:#f7931e;}.cls-5{fill:#6c9;}</style></defs><g id="all_elements"><g id="fire_glyph"><path class="cls-1" d="M2129.49,3298.15l702.36-1216.53,702.37,1216.53Zm1282.82-70.38L2831.85,2222.39,2251.4,3227.77Z"/><path class="cls-2" d="M2831.85,2101.62,3516.9,3288.15H2146.81l685-1186.53M2234.08,3237.77H3429.63L2831.85,2202.39,2234.08,3237.77m597.77-1176.15-17.32,30-685,1186.53-17.32,30H3551.54l-17.32-30-685-1186.53-17.32-30ZM2268.72,3217.77l563.13-975.38L3395,3217.77Z"/></g><g id="air_glyph"><path class="cls-3" d="M465.78,3298.15l320.7-555.48H526.73a35.19,35.19,0,1,1,0-70.38H827.12l341-590.67,341,590.67h300.39a35.19,35.19,0,1,1,0,70.38H1549.8l320.71,555.48Zm1282.82-70.38-280.07-485.1H867.76l-280.07,485.1Zm-320.71-555.48-259.75-449.9-259.75,449.9Z"/><path class="cls-2" d="M1168.14,2101.62l335.25,580.67h306.16a25.19,25.19,0,1,1,0,50.38H1532.48l320.71,555.48H483.1l320.7-555.48H526.73a25.19,25.19,0,1,1,0-50.38H832.89l335.25-580.67M891.07,2682.29h554.14l-277.07-479.9-277.07,479.9m-320.7,555.48H1765.92l-291.62-505.1H862l-291.62,505.1m597.77-1176.15-17.32,30L821.34,2662.29H526.73a45.19,45.19,0,1,0,0,90.38H769.16L465.78,3278.15l-17.32,30H1887.83l-17.32-30-303.39-525.48h242.43a45.19,45.19,0,1,0,0-90.38H1514.94l-329.48-570.67-17.32-30ZM925.71,2662.29l242.43-419.9,242.43,419.9Zm-52.17,90.38h589.21l268.53,465.1H605l268.53-465.1Z"/></g><g id="earth_glyph"><path class="cls-4" d="M2490.83,1327.71H2190.44a35.19,35.19,0,0,1,0-70.38h259.75l-320.7-555.48H3534.22l-320.71,555.48h259.76a35.19,35.19,0,0,1,0,70.38h-300.4l-341,590.67Zm341,449.9,259.75-449.9H2572.1Zm300.39-520.28,280.07-485.1H2251.4l280.07,485.1Z"/><path class="cls-2" d="M3516.9,711.85l-320.71,555.48h277.08a25.19,25.19,0,0,1,0,50.38H3167.1l-335.25,580.67L2496.6,1317.71H2190.44a25.19,25.19,0,0,1,0-50.38h277.07l-320.7-555.48H3516.9m-991.2,555.48H3138l291.62-505.1H2234.08l291.62,505.1m306.15,530.28,277.07-479.9H2554.78l277.07,479.9M3551.54,691.85H2112.17l17.32,30,303.38,525.48H2190.44a45.19,45.19,0,0,0,0,90.38h294.61l329.48,570.67,17.32,30,17.32-30,329.48-570.67h294.62a45.19,45.19,0,0,0,0-90.38H3230.83l303.39-525.48,17.32-30ZM2268.72,782.23H3395l-268.53,465.1H2537.25l-268.53-465.1Zm320.7,555.48h484.86l-242.43,419.9-242.43-419.9Z"/></g><g id="water_glyph"><path class="cls-5" d="M465.78,701.85H1870.51L1168.14,1918.38Zm702.36,1075.76L1748.6,772.23H587.69Z"/><path class="cls-2" d="M1853.19,711.85l-685,1186.53L483.1,711.85H1853.19m-87.27,50.38H570.37l597.77,1035.38L1765.92,762.23m121.91-70.38H448.46l17.32,30,685,1186.53,17.32,30,17.32-30L1870.51,721.85l17.32-30ZM605,782.23H1731.28l-563.14,975.38L605,782.23Z"/></g><g id="text"><g id="fire_text"><path class="cls-1" d="M2465,3759.86l.18-5.16c.32-9.74.61-27.24.85-52s.36-61.1.36-107.74c0-18-.08-41.84-.24-72.73-.16-30.08-.49-61.53-1-93.45l-.07-5.08h5.07c11.73,0,26,.08,43.63.25,16.94.16,35.2.24,54.27.24,28.48,0,52.21-.08,70.52-.24,20.1-.18,29.31-.25,31.78-.25h5v43.94h-5c-2.81,0-13.3-.12-32.05-.37-18.44-.24-41.42-.36-68.29-.36-12,0-23.26,0-33.53.12-7.71.06-14.76.1-21,.11,0,16.91-.19,35.35-.48,54.9-.29,19.08-.46,36.4-.49,51.59l11.89.1c8.93.08,17.87.12,26.57.12,26.55,0,52-.12,75.51-.37,23.92-.24,36.83-.36,39.48-.36h5v43.69h-5c-3.1,0-18.27-.13-45.09-.37s-51.14-.36-72.34-.36c-6.57,0-14.38,0-23.89.12l-12.13.1c0,26.86.14,52.62.37,76.64q.36,38.45.61,61.88l.05,5.05Z"/><path class="cls-2" d="M2670.32,3428.69v33.94q-4.16,0-32-.37t-68.36-.36q-18.32,0-33.57.12t-26,.12q0,27.59-.49,59.81t-.49,56.64q2.93,0,16.85.13t26.61.12q40,0,75.56-.37t39.43-.36v33.69q-4.65,0-45.05-.37t-72.38-.36q-10,0-23.93.12t-17.09.12q0,43.21.37,81.66t.61,61.89h-40.29q.49-14.64.86-52.12t.36-107.79q0-27.59-.24-72.75t-1-93.51q17.82,0,43.58.25t54.32.24q42.72,0,70.56-.24t31.74-.25m10-10h-10c-2.48,0-11.7.07-31.83.25-18.29.16-42,.24-70.47.24-19.06,0-37.3-.08-54.22-.24-17.65-.17-31.94-.25-43.68-.25H2460l.15,10.15c.49,31.92.82,63.34,1,93.41.16,30.88.24,54.66.24,72.7,0,46.63-.12,82.86-.36,107.69s-.53,42.19-.85,51.89l-.34,10.33h60.72l-.1-10.1q-.26-23.43-.61-61.88c-.22-22.52-.34-46.57-.37-71.63l7.18-.06c9.48-.08,17.28-.12,23.84-.12,21.18,0,45.51.12,72.29.36,27.22.25,42,.37,45.14.37h10v-53.69h-10c-2.67,0-15.6.12-39.53.36-23.54.25-48.93.37-75.46.37-8.69,0-17.61,0-26.52-.12l-6.92-.06c.05-13.94.21-29.55.47-46.55.26-17.68.42-34.44.47-50,5,0,10.35-.06,16.1-.1,10.26-.08,21.53-.12,33.49-.12,26.84,0,49.8.12,68.22.36,18.78.25,29.28.37,32.12.37h10v-53.94Z"/><path class="cls-1" d="M2732.2,3759.86l.32-5.3c.11-1.76.3-11.48.6-47.83.25-29.31.37-53.86.37-73,0-16.35,0-34.95-.12-55.28-.09-20.16-.37-43.92-.86-70.61l-.09-5.09h48.74l-.07,5.07c-.31,22.07-.6,44.2-.86,65.79-.24,20.31-.36,38.65-.36,54.51,0,37.78.2,68.47.61,91.22.47,26.9.61,34.86.61,35.48v5Zm-1.88-294.43v-52h53v52Z"/><path class="cls-2" d="M2778.29,3418.44v42h-43v-42h43m-2.2,89.35q-.49,35.16-.86,65.8t-.36,54.57q0,56.88.61,91.3t.61,35.4h-38.58q.24-3.9.61-48.09t.37-73q0-25.14-.12-55.3t-.86-70.68h38.58m12.2-99.35h-63v62h63v-62Zm-2.06,89.35h-58.9l.19,10.18c.48,26.66.76,50.4.85,70.54.08,20.33.12,38.92.12,55.26,0,19.09-.12,43.62-.37,72.92-.31,38.15-.5,46.17-.59,47.56l-.65,10.61h59.21v-10c0-.67-.13-8-.61-35.57-.41-22.71-.61-53.37-.61-91.13,0-15.84.12-34.16.36-54.45.26-21.59.55-43.72.86-65.78l.14-10.14Z"/><path class="cls-1" d="M2842.88,3759.86v-5c0-2.86.17-12.35.49-27.45.33-15.41.49-42.07.49-79.24,0-14.82-.08-35.57-.24-63.44-.17-27-.41-52.9-.74-76.87l-.06-5.07h47.91v34c16.06-8.8,32.08-16.63,47.72-23.32,18-7.71,32.74-13,43.68-15.87l5-1.3,9.44,44.06-4.76,1.13c-8.73,2.06-22.37,6.52-40.56,13.25-17.5,6.48-37.88,15.16-60.59,25.83,0,3.66-.11,10.36-.23,21.41-.16,14.37-.24,28-.24,40.6,0,19.17.2,42.15.61,68.28.42,27.56.61,41.13.61,44v5Z"/><path class="cls-2" d="M2983.38,3502.42l7.33,34.18q-13.44,3.18-41.14,13.43t-63.84,27.34q0,2.7-.25,24.54t-.24,40.65q0,28.82.61,68.36t.61,43.94h-38.58q0-4.14.49-27.34t.49-79.35q0-22.7-.24-63.47t-.74-76.91h37.85v37.11l.24.25a545.3,545.3,0,0,1,54.44-27.1q26.87-11.48,43-15.63m7.6-12.28-10.09,2.6c-11.19,2.88-26.13,8.31-44.4,16.11-13.39,5.72-27,12.27-40.76,19.55v-30.61h-58l.14,10.14c.32,24,.56,49.8.73,76.83.16,27.86.24,48.61.24,63.41,0,37.13-.16,63.76-.48,79.14s-.5,24.61-.5,27.55v10h58.58v-10c0-2.91-.19-16.51-.61-44.09-.41-26.12-.61-49.06-.61-68.21,0-12.55.08-26.19.24-40.54.09-8.41.16-14.32.2-18.27,21.44-10,40.72-18.18,57.36-24.34,18-6.66,31.44-11.06,40-13.08l9.53-2.25-2.05-9.57-7.33-34.18-2.18-10.19Z"/><path class="cls-1" d="M3170.39,3760.84c-26.48,0-49.92-3.5-69.64-10.41-19.88-7-36.47-16.74-49.3-29.07-10.94-10.26-20.38-23.58-28-39.53s-11.6-34.12-11.6-53.67c0-19.07,2.9-36.57,8.61-52a141.49,141.49,0,0,1,25.8-43.28,101.72,101.72,0,0,1,37.61-27,118.33,118.33,0,0,1,46.26-9.42c15.68,0,29.85,2.41,42.1,7.17a86.82,86.82,0,0,1,32.36,22c10.06,10.91,17.81,24.46,23.06,40.28,5.19,15.65,7.9,34.61,8.07,56.35l0,5h-176.4a101.62,101.62,0,0,0,10.31,40.25c6.72,13.52,17.2,24.88,31.17,33.78a103.65,103.65,0,0,0,30.75,12.92c11.58,2.89,25.79,4.36,42.24,4.36,9.13,0,17.61-.24,25.2-.72,7.8-.49,12.43-.81,14.14-1l6.25-.58-5.75,42.51-3.81.48c-.93.11-3.32.33-13.29.88C3189.12,3760.63,3180.32,3760.84,3170.39,3760.84ZM3187,3590c-2.94-16.34-9.11-29.44-18.39-39-10.26-10.56-23.51-15.7-40.48-15.7s-30.86,5.26-42.21,16.08c-10.16,9.69-17.66,22.66-22.34,38.62Z"/><path class="cls-2" d="M3130.11,3501.45q22.71,0,40.28,6.83a81.66,81.66,0,0,1,30.52,20.75q14.4,15.63,22,38.46t7.82,54.81H3054.18a107.46,107.46,0,0,0,11,47.48q10.74,21.61,33,35.77a108.25,108.25,0,0,0,32.23,13.55q18.06,4.52,43.45,4.51,13.92,0,25.52-.73t14.28-1l-4.4,32.47q-2,.24-12.94.85t-25.88.61q-39.06,0-68-10.13t-47.48-28q-15.89-14.88-27-38.08t-11.11-51.51q0-27.84,8.3-50.3a136,136,0,0,1,24.9-41.75,96.19,96.19,0,0,1,35.77-25.63,112.7,112.7,0,0,1,44.31-9m-73,93.5h135.75q-3.92-30.27-20.63-47.48t-44.07-17.22q-27.35,0-45.66,17.46T3057.11,3595m73-103.5a123.07,123.07,0,0,0-48.2,9.82,106.42,106.42,0,0,0-39.43,28.29,146.7,146.7,0,0,0-26.73,44.84c-5.92,16-8.92,34.1-8.92,53.76,0,20.3,4.07,39.09,12.09,55.83,7.9,16.49,17.69,30.29,29.11,41,13.35,12.81,30.53,22.95,51.07,30.14,20.25,7.09,44.24,10.69,71.29,10.69,10,0,18.92-.21,26.43-.62,10-.56,12.55-.79,13.64-.92l7.63-1,1-7.62,4.4-32.47,1.68-12.45-12.5,1.15c-1.65.15-6.36.47-14,1-7.48.47-15.85.71-24.88.71-16,0-29.84-1.41-41-4.21a98.94,98.94,0,0,1-29.27-12.28c-13.19-8.41-23.08-19.1-29.39-31.79a95.39,95.39,0,0,1-9.38-33h176l-.07-10.08c-.17-22.26-3-41.73-8.32-57.88-5.48-16.5-13.59-30.66-24.11-42.08A92,92,0,0,0,3174,3499c-12.83-5-27.61-7.51-43.91-7.51Zm-59.6,93.5c4.43-12.19,10.76-22.25,18.89-30,10.38-9.89,23-14.7,38.76-14.7,15.55,0,27.62,4.64,36.89,14.19,7.45,7.66,12.75,17.9,15.82,30.51Z"/></g><g id="air_text"><path class="cls-3" d="M844.92,3745.85l2.17-4.33c4.2-8.41,21.8-46,52.3-111.77s62.72-136,95.56-208.49l1.33-2.94h38.21l1.32,3c32.36,72.47,64.64,143.73,95.93,211.79s47.75,103.85,49,106.6l2,4.36-47.29,24.46-2-5.29c-.44-1.18-3.49-8.4-15.54-36.13-9.38-21.6-21.92-49.74-37.29-83.66H942.65c-16.8,37.13-29.36,65-38.38,85.17-9.27,20.74-14.44,32.43-15.37,34.74l-2.09,5.2Zm217.74-143.45c-7.78-17.88-16-36.53-24.36-55.52s-17.1-38.58-26.1-58.76c-7.37,16.23-15.94,35.37-25.54,57-10,22.58-18.58,41.79-25.58,57.25Z"/><path class="cls-2" d="M1031.25,3423.32q48.82,109.33,95.94,211.84t49.07,106.64l-38,19.66q-1-2.7-15.64-36.38T1084,3638.41H939.43q-25.75,56.88-39.72,88.13t-15.45,34.92l-32.7-17.7q6.35-12.71,52.37-111.9t95.58-208.54h31.74M953.32,3607.4h117l-.1-.24q-12.93-29.8-27.31-62.3t-30.18-67.93l-1,.22q-12.29,26.83-29.62,66t-28.66,64l-.11.24m84.41-194.08H993.06l-2.66,5.87c-32.84,72.44-65,142.58-95.55,208.46-30.47,65.7-48.05,103.26-52.24,111.63l-4.33,8.66,8.52,4.61,32.7,17.7,9.86,5.34,4.18-10.41c.91-2.25,6.05-13.88,15.3-34.55,8.77-19.63,20.91-46.57,37-82.22h131.65c14.75,32.59,26.82,59.7,35.93,80.65,12.58,29,15.07,34.91,15.44,35.89l4,10.53,10-5.14,38-19.65,8.56-4.43-4.11-8.72c-1.29-2.74-17.79-38.59-49-106.56s-63.55-139.29-95.9-211.74l-2.65-5.92Zm-68.9,184.08c6.36-14.13,13.87-31,22.4-50.22,7.66-17.3,14.67-33,20.94-46.86,7.4,16.64,14.63,32.92,21.56,48.58,7.3,16.52,14.45,32.78,21.3,48.5Z"/><path class="cls-3" d="M1221.24,3759.86l.33-5.3c.1-1.76.3-11.48.6-47.83.24-29.31.36-53.86.36-73,0-16.35,0-34.95-.12-55.28-.08-20.16-.37-43.92-.85-70.61l-.09-5.09h48.73l-.07,5.07c-.31,22.07-.59,44.2-.85,65.79-.25,20.31-.37,38.65-.37,54.51,0,37.78.21,68.47.61,91.22.47,26.9.61,34.86.61,35.48v5Zm-1.88-294.43v-52h53v52Z"/><path class="cls-2" d="M1267.33,3418.44v42h-43v-42h43m-2.2,89.35q-.5,35.16-.85,65.8t-.37,54.57q0,56.88.61,91.3t.61,35.4h-38.57q.24-3.9.61-48.09t.36-73q0-25.14-.12-55.3t-.85-70.68h38.57m12.2-99.35h-63v62h63v-62Zm-2.06,89.35h-58.89l.18,10.18c.48,26.66.77,50.4.85,70.54.08,20.33.12,38.92.12,55.26,0,19.09-.12,43.62-.36,72.92-.32,38.15-.51,46.17-.59,47.56l-.66,10.61h59.21v-10c0-.67-.12-8-.61-35.57-.4-22.71-.61-53.37-.61-91.13,0-15.84.12-34.16.37-54.45.25-21.59.54-43.72.85-65.78l.14-10.14Z"/><path class="cls-3" d="M1335.93,3759.86v-5c0-2.86.17-12.35.49-27.45.32-15.41.49-42.07.49-79.24,0-14.82-.08-35.57-.25-63.44-.16-27-.41-52.9-.73-76.87l-.07-5.07h47.91v34c16.06-8.8,32.08-16.63,47.72-23.32,18-7.71,32.74-13,43.69-15.87l5-1.3,9.45,44.06-4.77,1.13c-8.73,2.06-22.37,6.52-40.55,13.25-17.51,6.48-37.88,15.16-60.6,25.83,0,3.66-.1,10.36-.22,21.41-.17,14.37-.25,28-.25,40.6,0,19.17.21,42.15.61,68.28.42,27.56.61,41.13.61,44v5Z"/><path class="cls-2" d="M1476.43,3502.42l7.32,34.18q-13.43,3.18-41.14,13.43t-63.84,27.34q0,2.7-.24,24.54t-.25,40.65q0,28.82.61,68.36t.61,43.94h-38.57q0-4.14.49-27.34t.49-79.35q0-22.7-.25-63.47t-.73-76.91h37.84v37.11l.24.25a545.44,545.44,0,0,1,54.45-27.1q26.85-11.48,43-15.63m7.59-12.28-10.09,2.6c-11.19,2.88-26.13,8.31-44.4,16.11-13.39,5.72-27,12.27-40.76,19.55v-30.61h-58l.14,10.14c.32,24,.57,49.8.73,76.83.17,27.86.25,48.61.25,63.41,0,37.13-.17,63.76-.49,79.14s-.49,24.61-.49,27.55v10h58.57v-10c0-2.91-.19-16.51-.61-44.09-.4-26.12-.61-49.06-.61-68.21,0-12.55.08-26.19.25-40.54.09-8.41.15-14.32.19-18.27,21.45-10,40.72-18.18,57.36-24.34,18-6.66,31.44-11.06,40-13.08l9.53-2.25-2-9.57-7.33-34.18-2.18-10.19Z"/></g><g id="earth_text"><path class="cls-4" d="M2505.11,586.85c-1.57,0-13.42-.09-32.51-.25-20.41-.16-45.61-.24-74.91-.24-20.28,0-39.37.08-56.72.24-17,.16-31.65.25-43.63.25h-5.17l.18-5.18c.32-9.4.61-30,.85-61.14s.36-64,.36-97.38c0-18.06-.08-41.93-.24-73-.16-30.24-.49-61.85-1-93.94l-.07-5.08h5.07c11.4,0,25.59.08,43.38.25,17.11.16,35.12.24,53.55.24,31.08,0,56.61-.08,75.88-.24s30.12-.25,31.78-.25h5V295.1h-5c-1.66,0-11.71-.12-30.7-.37-18.69-.24-42.29-.37-70.13-.37-11.95,0-24,.05-35.85.13-8.85.06-16.52.1-22.87.11,0,16.65-.19,33.49-.49,50.15-.29,16.22-.45,31.94-.48,46.8,6.1,0,13,.05,21,.11,9.64.09,18.62.13,26.69.13,28.49,0,54.31-.13,76.73-.37,22.77-.25,34.56-.37,36.06-.37h5v43.7h-5c-1.33,0-14.52-.12-40.33-.37-25.42-.24-49-.37-70-.37-7.7,0-16.83,0-27.91.13-8.26.06-15.73.1-22.26.11,0,28.43.09,51.36.24,68.2.14,15.46.28,29.06.43,40.54,8.56.12,18.63.22,30,.29,13.37.08,27.81.12,44.16.12,24.25,0,44.81-.08,61.11-.25,18.13-.17,25.92-.24,27.76-.24h5v43.94Z"/><path class="cls-2" d="M2501.93,256.16V290.1q-2.44,0-30.64-.37t-70.19-.37q-18.3,0-35.89.13t-27.83.12q0,27.58-.49,55.05t-.48,51.88q11,0,26,.12t26.73.13q43,0,76.78-.37t36-.37v33.7q-1.95,0-40.28-.37t-70.07-.37q-11.72,0-27.95.13t-27.22.12q0,46.14.24,73.24t.49,45.41q14.4.24,34.91.37t44.19.12q36.38,0,61.16-.25t27.71-.24v33.94q-2.21,0-32.47-.25t-74.95-.24q-31,0-56.77.24t-43.58.25q.49-14.16.86-61.28t.36-97.42q0-27.58-.24-73t-1-94q17.34,0,43.34.25t53.59.24q46.62,0,75.93-.24t31.73-.25m10-10h-10c-1.68,0-12.48.09-31.82.25s-44.77.24-75.84.24c-18.41,0-36.41-.08-53.5-.24-17.81-.17-32-.25-43.43-.25h-10.15l.15,10.15c.49,32.07.82,63.66,1,93.9.16,31,.24,54.9.24,72.94,0,33.35-.12,66.1-.36,97.34s-.53,51.66-.85,61l-.36,10.35h10.35c12,0,26.69-.09,43.68-.25,17.33-.16,36.39-.24,56.67-.24,29.29,0,54.48.08,74.87.24,19.39.16,31,.25,32.55.25h10V537.91h-10c-1.86,0-9.65.07-27.81.24-16.28.17-36.82.25-61.06.25-16.35,0-30.78,0-44.13-.12-9.27-.06-17.67-.13-25.1-.23-.12-10.39-.24-22.33-.36-35.64-.14-15.84-.22-37.06-.24-63.17,5.27,0,11.05-.06,17.3-.11,11.07-.08,20.19-.12,27.87-.12,21,0,44.57.13,70,.37,25.83.25,39,.37,40.38.37h10v-53.7h-10c-1.51,0-13.33.12-36.12.37-22.4.24-48.2.37-76.67.37-8.06,0-17,0-26.65-.13-5.9,0-11.23-.08-16.06-.1.05-13.34.21-27.33.46-41.72.27-15,.43-30.21.48-45.25l17.92-.1c11.83-.08,23.88-.13,35.81-.13,27.82,0,51.4.13,70.06.37,19,.25,29.09.37,30.77.37h10V246.16Z"/><path class="cls-4" d="M2659.88,591.24a232.48,232.48,0,0,1-41.18-3.74c-13.87-2.51-26-6.17-36.13-10.89a88.57,88.57,0,0,1-33.46-26.13c-8.71-11.26-13.13-24.94-13.13-40.66,0-16.59,5.2-31.19,15.46-43.38,10-11.88,24-21.59,41.59-28.86,10.81-4.5,25.38-8.58,43.29-12.13a523.35,523.35,0,0,1,55.9-7.59c-1.27-9.57-4-17.61-8.2-23.94-4.77-7.23-12-12.84-21.39-16.67a94.72,94.72,0,0,0-22.73-5.91,223.2,223.2,0,0,0-30.07-1.78c-7.17,0-13.34.16-18.36.48s-11.72.71-20.92,1.22l-6,.33,5.11-42.51,4.15-.27c2.55-.17,7.59-.47,14.57-.86,7.35-.41,17.42-.62,29.94-.62,19.54,0,37.27,2.07,52.67,6.15,15.77,4.18,29.07,11.09,39.55,20.53a85.6,85.6,0,0,1,22.32,33.31c4.92,13,7.41,31.76,7.41,55.85,0,39.78-.09,73-.25,98.67-.15,24-.24,38.94-.24,41v4.53l-4.51.45c-1.68.16-9.14.76-22.81,1.84S2681.21,591.24,2659.88,591.24Zm32.91-134.18c-7.33.62-18.05,1.92-32,3.88-17.45,2.46-32.27,6-44.06,10.58a65.49,65.49,0,0,0-22.62,14.31,28.84,28.84,0,0,0-9.1,21.8c0,9.89,2.54,17.54,7.77,23.4,5.41,6.08,13,10.82,22.55,14.1a125.36,125.36,0,0,0,25.49,5.75,241,241,0,0,0,30,1.8c3.22,0,7.19-.09,11.79-.25l10.1-.33c0-2.61.05-6.31.09-11.31.08-9.7.12-22.75.12-38.78V481C2693,474,2692.91,466.13,2692.79,457.06Z"/><path class="cls-2" d="M2618.37,332.33q28.82,0,51.39,6t37.48,19.41a80.38,80.38,0,0,1,21,31.38q7.08,18.67,7.08,54.07,0,60.56-.25,98.64t-.24,41q-2.45.24-22.71,1.83t-52.24,1.59a226.3,226.3,0,0,1-40.29-3.66q-20.27-3.66-34.91-10.5-19.53-9-31.61-24.66T2541,509.82q0-23.19,14.28-40.16t39.68-27.46q15.86-6.6,42.35-11.84a527.2,527.2,0,0,1,60.43-7.94q-1.47-19-9.52-31.25t-23.68-18.55a99.07,99.07,0,0,0-23.93-6.23,226.57,226.57,0,0,0-30.76-1.83q-11,0-18.68.49t-20.87,1.22l3.9-32.47q3.66-.24,14.53-.86t29.66-.61m52.49,225.35c3.26,0,7.24-.08,12-.25l14.89-.49q0-1.7.12-16.11T2698,502V481q0-12.7-.24-29.3-10.75.5-37.6,4.27T2615,466.85a70,70,0,0,0-24.3,15.39A33.87,33.87,0,0,0,2580,507.63q0,16.61,9,26.73t24.65,15.5a130.5,130.5,0,0,0,26.49,6,245.32,245.32,0,0,0,30.64,1.84m-52.49-235.35c-12.61,0-22.78.21-30.22.63-7,.39-12.05.69-14.62.86l-8.28.54-1,8.24-3.91,32.47-1.43,11.85,11.91-.67c9.21-.51,16.07-.91,21-1.22s11-.47,18-.47a216.21,216.21,0,0,1,29.38,1.74,89.59,89.59,0,0,1,21.52,5.57c8.6,3.5,14.85,8.34,19.12,14.81a47.41,47.41,0,0,1,6.54,16.69,510.71,510.71,0,0,0-51,7.18c-18.24,3.61-33.12,7.79-44.25,12.41-18.33,7.58-33,17.76-43.49,30.26-11,13.12-16.63,28.8-16.63,46.6,0,16.85,4.77,31.56,14.18,43.72a93.54,93.54,0,0,0,35.33,27.62c10.46,4.88,23,8.68,37.33,11.26a237.62,237.62,0,0,0,42.06,3.82c21.46,0,39.3-.54,53-1.62s21.2-1.68,22.91-1.85l9-.88v-9.07c0-2,.09-17,.24-41,.16-25.7.25-58.91.25-98.7,0-25.05-2.53-43.89-7.73-57.62A90.58,90.58,0,0,0,2714,350.34l0,0,0,0c-11.08-10-25.08-17.27-41.61-21.65-15.83-4.19-34-6.32-54-6.32Zm52.49,225.35a235,235,0,0,1-29.39-1.76,121.19,121.19,0,0,1-24.45-5.5c-8.76-3-15.64-7.28-20.48-12.71-4.37-4.91-6.5-11.47-6.5-20.08a24.08,24.08,0,0,1,7.57-18.2,60.39,60.39,0,0,1,20.86-13.21l0,0,0,0c11.44-4.42,25.89-7.88,43-10.29,10.75-1.51,19.56-2.63,26.33-3.34.08,6.81.11,12.91.11,18.47v21c0,16,0,29-.12,38.74,0,2.37,0,4.55-.05,6.51l-5.3.18c-4.56.16-8.47.24-11.63.24Z"/><path class="cls-4" d="M2785,587.33v-5c0-2.86.17-12.35.49-27.45.33-15.41.49-42.07.49-79.24,0-14.82-.08-35.57-.24-63.44-.17-27-.41-52.9-.74-76.87l-.06-5.07h47.91v34c16-8.8,32.08-16.64,47.72-23.32,18-7.71,32.74-13.05,43.68-15.87l5.05-1.3,9.44,44.06-4.76,1.13c-8.73,2.06-22.37,6.52-40.56,13.25-17.5,6.48-37.88,15.16-60.59,25.83,0,3.65-.11,10.36-.23,21.41-.16,14.37-.24,28-.24,40.6,0,19.17.2,42.14.61,68.28.42,27.56.61,41.13.61,44v5Z"/><path class="cls-2" d="M2925.47,329.89l7.33,34.18q-13.44,3.18-41.14,13.43t-63.84,27.34q0,2.7-.25,24.54t-.24,40.65q0,28.82.61,68.36t.61,43.94H2790q0-4.14.49-27.34t.49-79.35q0-22.69-.24-63.47t-.74-76.91h37.85v37.11l.24.25a545.3,545.3,0,0,1,54.44-27.1q26.86-11.47,43-15.63m7.6-12.28-10.09,2.6c-11.19,2.88-26.13,8.3-44.4,16.11-13.39,5.72-27,12.27-40.76,19.54v-30.6h-58l.14,10.14c.32,24,.56,49.8.73,76.83.16,27.86.24,48.61.24,63.41,0,37.13-.16,63.76-.48,79.14s-.5,24.61-.5,27.55v10h58.58v-10c0-2.91-.19-16.51-.61-44.1-.41-26.11-.61-49.05-.61-68.2,0-12.55.08-26.19.24-40.54.09-8.41.16-14.32.2-18.27,21.44-10,40.72-18.18,57.36-24.34,18-6.66,31.44-11.06,40-13.08l9.53-2.25-2.06-9.57-7.32-34.18-2.18-10.19Z"/><path class="cls-4" d="M3110.72,588.8c-34.39,0-60.92-7.4-78.84-22-18.23-14.85-27.48-37.71-27.48-68,0-18,.13-37.57.37-58.17.23-19.41.35-43.56.36-71.84h-41V330.26h43.21V272.4h45.4v57.86h87.4v38.57H3052.7c0,5.27-.16,13.83-.33,25.59-.25,16.82-.37,29.45-.37,37.52v60.55c0,19.49,5.13,33.59,15.26,41.91,10.42,8.56,27.09,12.9,49.56,12.9,3,0,6.51,0,10.4-.12,4.27-.08,6.78-.12,7.91-.12h5.76l-5.73,40.43-3.72.53c-.86.12-2.71.3-8.94.53C3117.84,588.72,3114,588.8,3110.72,588.8Z"/><path class="cls-2" d="M3047.73,277.4v57.86h87.4v28.57h-87.4q0,5.13-.36,30.52t-.37,37.59v60.55q0,31.74,17.09,45.78t52.73,14c2.93,0,6.43,0,10.5-.12s6.67-.12,7.81-.12l-4.39,31q-1.71.24-8.42.48c-4.48.16-8.35.25-11.6.25q-50.05,0-75.68-20.88t-25.64-64.08q0-27.1.37-58.11t.36-76.9h-41V335.26h43.21V277.4h35.4m10-10h-55.4v57.86h-43.21v48.57h41c0,26.11-.15,48.54-.36,66.78-.24,20.62-.37,40.21-.37,58.23,0,31.83,9.87,56,29.32,71.84,18.84,15.34,46.43,23.12,82,23.12,3.33,0,7.24-.08,12-.25,6.37-.24,8.35-.43,9.46-.58l7.45-1.05,1.06-7.45,4.4-31,1.61-11.4h-11.52c-1.18,0-3.65,0-8,.12-3.87.08-7.34.12-10.31.12-21.28,0-36.88-3.95-46.38-11.76-8.92-7.32-13.44-20.13-13.44-38V431.94c0-8.05.12-20.65.37-37.45.12-8.69.21-15.55.27-20.66h87.49V325.26h-87.4V267.4Z"/><path class="cls-4" d="M3336.3,587.33l.17-5.16c.16-4.94.36-19.73.61-43.95s.36-40.66.36-48.42c0-8.26,0-20.51-.12-37.45-.08-16.41-.21-28.58-.37-36.17-.45-17.46-3.69-30-9.61-37.22-5.64-6.88-16-10.38-30.8-10.38-8.61,0-20,2.7-33.85,8A301.52,301.52,0,0,0,3220,397.44l1,189.89h-48.73l.13-5.12c.17-6.42.37-32.22.61-76.69s.37-81.86.37-110.69c0-18.58,0-41.93-.12-71.39-.09-28.83-.37-62.12-.86-98.95l-.06-5.07H3221l-1,135.8c20.22-11,37.25-18.89,50.7-23.47,15.27-5.2,28.62-7.83,39.7-7.83,22.14,0,40.23,7.12,53.77,21.18s20.32,33.29,20.32,57.3c0,20.44-.12,38.33-.37,53.18s-.36,27-.36,36.18c0,14.86.16,32,.49,50.94.32,19.11.57,32.41.73,39.52l.12,5.11Z"/><path class="cls-2" d="M3216,224.42l-1,138.92.24.24q34.92-19.53,57.13-27.1t38.09-7.56q31.24,0,50.17,19.65t18.92,53.83q0,30.77-.37,53.1t-.36,36.26q0,22.22.49,51t.73,39.55h-38.58q.24-7.32.62-44.06t.36-48.47q0-12.69-.12-37.47t-.37-36.26q-.73-28.06-10.74-40.28t-34.67-12.21q-13.9,0-35.64,8.36a308,308,0,0,0-45.9,22.65l1,187.74H3177.4q.24-9.51.61-76.78t.37-110.72q0-28.32-.12-71.41t-.86-99H3216m10.07-10h-58.78l.13,10.13c.49,36.81.77,70.09.86,98.9.08,29.46.12,52.81.12,71.38,0,28.82-.12,66.06-.37,110.67-.3,55.34-.49,72.19-.6,76.58l-.26,10.25H3226l-.05-10.05-.95-182a291.14,291.14,0,0,1,39.46-19c13.27-5.11,24.05-7.7,32.05-7.7,13.22,0,22.29,2.88,26.94,8.55,3.57,4.36,7.94,13.83,8.48,34.18.15,7.57.28,19.7.36,36.07.08,16.93.12,29.17.12,37.42,0,7.75-.12,24-.36,48.37-.3,30.13-.5,40.47-.61,43.84l-.34,10.32h59.14L3390,582.1c-.17-7.1-.41-20.39-.73-39.49-.33-18.9-.49-36-.49-50.85,0-9.18.12-21.33.36-36.09s.37-32.8.37-53.27c0-25.35-7.31-45.79-21.72-60.77s-33.82-22.71-57.37-22.71c-11.79,0-25.3,2.65-41.31,8.1-12,4.09-26.79,10.74-44,19.82l.86-122.35.07-10.07Z"/></g><g id="water_tet"><path class="cls-5" d="M844.47,588.8l-1-3.72c-.55-2.06-5.52-17.15-26.15-77.42-15.73-46-36.46-103.23-61.67-170.4C733.57,393,712.91,447,694.2,498c-19,51.86-30.73,83.75-32.1,87.51l-1.2,3.29h-42l-1-3.67c-1.28-4.63-11.81-36.79-31.29-95.58S540.69,356,508.18,267.65l-1.7-4.6,49.76-19.4,1.5,5.29c.43,1.51,5.72,17.62,28.48,85.76,17.21,51.55,37,109.78,59,173.25,23-58.31,43.45-112.64,60.82-161.64,23.07-65.08,28.59-80.76,29.16-82.46l1.14-3.41h45.41l.9,3.86c.45,1.87,5.94,18.82,29.55,88.95,17.53,52.08,35.57,103.88,53.69,154.17,24-65.7,44.7-124.36,61.52-174.53,22.18-66.19,27.35-82.11,27.77-83.8l1.33-5.28,46.29,15.89-1.84,4.84c-27.35,71.69-53.16,143-76.72,212.11S888.13,582.32,887,585.52l-1.21,3.28Z"/><path class="cls-2" d="M960,250.3l36.26,12.45Q955,370.92,919.49,475T882.26,583.8H848.32q-1.23-4.63-26.25-77.76T756,324h-.48q-35.89,90.09-66,172.24T657.4,583.8H622.73q-2-7.08-31.37-95.83t-78.49-222l40.06-15.63q1,3.42,28.54,86t63.19,185.39l.5,0Q682.77,426.88,710.74,348t29.18-82.54h37.84q1,4.15,29.68,89.41t58.27,166.84l.37-.32q39.13-106.62,66-186.89T960,250.3M559.54,237l-10.24,4-40.06,15.62-9.14,3.57,3.39,9.2c32.49,88.27,58.86,162.87,78.38,221.74,24.24,73.13,30.36,92.21,31.23,95.34l2,7.34h49.29l2.39-6.58c1.37-3.77,13.07-35.66,32.09-87.5,17.35-47.26,36.36-97.12,56.65-148.54,23.15,61.89,42.32,115,57.07,158.1,21.58,63.05,25.58,75.36,26,77.08l2,7.4,7.68,0h40.91l2.41-6.55c1.2-3.25,13.75-39.92,37.31-109S978.28,338,1005.61,266.32l3.69-9.67-9.78-3.35-36.26-12.46L953,237.31l-2.64,10.53c-.58,2.14-5.86,18.39-27.67,83.46-15.69,46.8-34.75,101-56.75,161.43-16.53-46.17-33-93.51-49-141.07-23.16-68.79-28.8-86.16-29.43-88.55l-1.8-7.67h-53l-2.28,6.83c-.56,1.67-6.07,17.32-29.13,82.37C685.22,390,666.48,440,645.5,493.52,625.31,435,607,381.16,591,333.11c-22.58-67.61-27.91-83.84-28.41-85.55l-3-10.58Z"/><path class="cls-5" d="M1122.72,591.24a232.48,232.48,0,0,1-41.18-3.74c-13.87-2.51-26-6.17-36.13-10.89A88.57,88.57,0,0,1,1012,550.48c-8.71-11.26-13.13-24.94-13.13-40.66,0-16.59,5.2-31.19,15.46-43.38,10-11.88,24-21.59,41.58-28.86,10.82-4.5,25.39-8.58,43.3-12.13a523.35,523.35,0,0,1,55.9-7.59c-1.27-9.57-4-17.61-8.2-23.94-4.77-7.23-12-12.84-21.39-16.67a94.72,94.72,0,0,0-22.73-5.91,223.2,223.2,0,0,0-30.07-1.78c-7.17,0-13.35.16-18.36.48s-11.72.71-20.92,1.22l-6,.33,5.11-42.51,4.15-.27c2.55-.17,7.59-.47,14.57-.86,7.35-.41,17.42-.62,29.94-.62,19.54,0,37.27,2.07,52.67,6.15,15.76,4.18,29.07,11.09,39.55,20.53a85.6,85.6,0,0,1,22.32,33.31c4.91,13,7.41,31.76,7.41,55.85,0,39.78-.09,73-.25,98.67-.15,24-.24,38.94-.24,41v4.53l-4.51.45c-1.68.16-9.14.76-22.81,1.84S1144.05,591.24,1122.72,591.24Zm32.91-134.18c-7.33.62-18.05,1.92-32,3.88-17.45,2.46-32.27,6-44.06,10.58A65.49,65.49,0,0,0,1057,485.83a28.84,28.84,0,0,0-9.1,21.8c0,9.89,2.54,17.54,7.77,23.4,5.41,6.08,13,10.82,22.55,14.1a125.36,125.36,0,0,0,25.49,5.75,241,241,0,0,0,30,1.8c3.22,0,7.19-.09,11.79-.25l10.1-.33c0-2.61.05-6.31.09-11.31.08-9.7.12-22.75.12-38.78V481C1155.8,474,1155.75,466.13,1155.63,457.06Z"/><path class="cls-2" d="M1081.21,332.33q28.82,0,51.39,6t37.48,19.41a80.38,80.38,0,0,1,21,31.38q7.07,18.67,7.08,54.07,0,60.56-.25,98.64t-.24,41q-2.45.24-22.71,1.83t-52.24,1.59a226.3,226.3,0,0,1-40.29-3.66q-20.27-3.66-34.91-10.5-19.53-9-31.62-24.66t-12.08-37.6q0-23.19,14.28-40.16t39.67-27.46q15.87-6.6,42.36-11.84a527.2,527.2,0,0,1,60.43-7.94q-1.47-19-9.52-31.25t-23.69-18.55a98.86,98.86,0,0,0-23.92-6.23,226.57,226.57,0,0,0-30.76-1.83q-11,0-18.68.49t-20.87,1.22l3.9-32.47q3.66-.24,14.53-.86t29.66-.61m52.49,225.35c3.26,0,7.24-.08,12-.25l14.89-.49q0-1.7.12-16.11t.12-38.82V481q0-12.7-.24-29.3-10.75.5-37.6,4.27t-45.17,10.86a70.08,70.08,0,0,0-24.29,15.39,33.87,33.87,0,0,0-10.62,25.39q0,16.61,9,26.73t24.65,15.5a130.5,130.5,0,0,0,26.49,6,245.2,245.2,0,0,0,30.64,1.84m-52.49-235.35c-12.61,0-22.78.21-30.22.63-7,.39-12,.69-14.62.86l-8.28.54-1,8.24-3.9,32.47-1.43,11.85,11.91-.67c9.21-.51,16.06-.91,21-1.22s11-.47,18-.47a216.21,216.21,0,0,1,29.38,1.74,89.59,89.59,0,0,1,21.52,5.57c8.6,3.5,14.85,8.34,19.12,14.81a47.41,47.41,0,0,1,6.54,16.69,510.71,510.71,0,0,0-51,7.18c-18.24,3.61-33.13,7.79-44.25,12.41-18.33,7.58-33,17.76-43.49,30.26-11,13.12-16.63,28.8-16.63,46.6,0,16.85,4.77,31.56,14.18,43.72a93.54,93.54,0,0,0,35.33,27.62c10.46,4.88,23,8.68,37.33,11.26a237.62,237.62,0,0,0,42.06,3.82c21.46,0,39.3-.54,53-1.62s21.2-1.68,22.91-1.85l9-.88v-9.07c0-2,.09-17,.24-41,.16-25.7.25-58.91.25-98.7,0-25.05-2.53-43.89-7.73-57.62a90.58,90.58,0,0,0-23.61-35.21l0,0,0,0c-11.07-10-25.07-17.27-41.6-21.65-15.83-4.19-34-6.32-54-6.32Zm52.49,225.35a234.88,234.88,0,0,1-29.39-1.76,121.19,121.19,0,0,1-24.45-5.5c-8.76-3-15.64-7.28-20.48-12.71-4.37-4.91-6.5-11.47-6.5-20.08a24.08,24.08,0,0,1,7.57-18.2,60.44,60.44,0,0,1,20.85-13.21l0,0,.05,0c11.44-4.42,25.89-7.88,43-10.29,10.75-1.51,19.56-2.63,26.33-3.34.08,6.81.11,12.91.11,18.47v21c0,16,0,29-.12,38.74,0,2.37,0,4.55,0,6.51l-5.3.18c-4.56.16-8.47.24-11.63.24Z"/><path class="cls-5" d="M1380.18,588.8c-34.39,0-60.92-7.4-78.84-22-18.24-14.85-27.48-37.71-27.48-68,0-18,.12-37.57.37-58.17.22-19.41.35-43.56.36-71.84h-41V330.26h43.21V272.4h45.4v57.86h87.4v38.57h-87.43c-.06,5.27-.17,13.83-.34,25.59-.24,16.82-.36,29.45-.36,37.52v60.55c0,19.49,5.13,33.59,15.26,41.91,10.42,8.56,27.09,12.9,49.56,12.9,3,0,6.5,0,10.4-.12,4.26-.08,6.78-.12,7.91-.12h5.76l-5.73,40.43-3.73.53c-.85.12-2.7.3-8.93.53C1387.3,588.72,1383.45,588.8,1380.18,588.8Z"/><path class="cls-2" d="M1317.19,277.4v57.86h87.4v28.57h-87.4q0,5.13-.37,30.52t-.36,37.59v60.55q0,31.74,17.09,45.78t52.73,14c2.93,0,6.43,0,10.5-.12s6.67-.12,7.81-.12l-4.39,31q-1.71.24-8.43.48c-4.47.16-8.34.25-11.59.25q-50.06,0-75.69-20.88t-25.63-64.08q0-27.1.37-58.11t.36-76.9h-41V335.26h43.21V277.4h35.4m10-10h-55.4v57.86h-43.21v48.57h41c0,26.11-.15,48.54-.36,66.78-.25,20.62-.37,40.21-.37,58.23,0,31.83,9.86,56,29.32,71.84,18.84,15.34,46.43,23.12,82,23.12,3.33,0,7.24-.08,12-.25,6.36-.24,8.35-.43,9.46-.58l7.45-1.05,1.06-7.45,4.39-31,1.62-11.4h-11.52c-1.18,0-3.65,0-8,.12-3.87.08-7.33.12-10.3.12-21.28,0-36.89-3.95-46.38-11.76-8.92-7.32-13.44-20.13-13.44-38V431.94c0-8.05.12-20.65.36-37.45.13-8.69.22-15.55.28-20.66h87.49V325.26h-87.4V267.4Z"/><path class="cls-5" d="M1589.49,588.31c-26.49,0-49.92-3.5-69.65-10.41s-36.47-16.74-49.3-29.07c-10.94-10.26-20.38-23.58-28-39.53s-11.6-34.12-11.6-53.68c0-19.06,2.9-36.56,8.61-52a141.41,141.41,0,0,1,25.81-43.28,101.61,101.61,0,0,1,37.6-27,118.33,118.33,0,0,1,46.26-9.42c15.68,0,29.85,2.41,42.1,7.17a86.82,86.82,0,0,1,32.36,22c10.06,10.91,17.81,24.46,23.06,40.28,5.19,15.65,7.9,34.61,8.07,56.35l0,5h-176.4A101.62,101.62,0,0,0,1488.74,495c6.72,13.52,17.2,24.88,31.17,33.78a103.65,103.65,0,0,0,30.75,12.92c11.58,2.89,25.79,4.36,42.24,4.36,9.13,0,17.61-.24,25.2-.72,7.8-.49,12.43-.81,14.14-1l6.26-.58-5.76,42.51-3.81.48c-.93.11-3.32.33-13.29.88C1608.21,588.1,1599.41,588.31,1589.49,588.31Zm16.63-170.89c-2.93-16.34-9.11-29.44-18.39-39-10.26-10.56-23.5-15.7-40.48-15.7S1516.39,368,1505,378.8c-10.16,9.69-17.66,22.66-22.34,38.62Z"/><path class="cls-2" d="M1549.2,328.92q22.71,0,40.29,6.83A81.71,81.71,0,0,1,1620,356.5q14.4,15.63,22,38.46t7.81,54.81H1473.27a107.59,107.59,0,0,0,11,47.48q10.74,21.6,33,35.77a108.25,108.25,0,0,0,32.23,13.55q18.06,4.51,43.45,4.51,13.92,0,25.52-.73t14.28-1l-4.4,32.48q-2,.24-12.94.85t-25.87.61q-39.08,0-68-10.13t-47.48-28q-15.87-14.88-27-38.08t-11.11-51.52q0-27.83,8.3-50.29a136,136,0,0,1,24.9-41.75A96.27,96.27,0,0,1,1504.89,338a112.7,112.7,0,0,1,44.31-9m-73,93.5H1612q-3.92-30.27-20.63-47.48t-44.07-17.22q-27.35,0-45.65,17.46t-25.4,47.24m73-103.5a123.11,123.11,0,0,0-48.2,9.82A106.42,106.42,0,0,0,1461.57,357a146.7,146.7,0,0,0-26.73,44.84c-5.92,16-8.92,34.1-8.92,53.75,0,20.31,4.07,39.1,12.09,55.84,7.9,16.49,17.69,30.29,29.11,41,13.35,12.81,30.53,22.95,51.07,30.14,20.26,7.09,44.24,10.69,71.3,10.69,10,0,18.91-.21,26.43-.63,10-.55,12.54-.78,13.63-.91l7.63-1,1-7.62,4.4-32.47,1.68-12.45-12.5,1.15c-1.65.15-6.36.47-14,1-7.49.47-15.86.71-24.89.71-16,0-29.84-1.42-41-4.21a98.94,98.94,0,0,1-29.27-12.28c-13.19-8.41-23.08-19.1-29.38-31.79a95.19,95.19,0,0,1-9.39-33h176l-.08-10.08c-.17-22.26-3-41.73-8.32-57.88-5.48-16.5-13.59-30.66-24.11-42.08a92,92,0,0,0-34.25-23.3c-12.83-5-27.6-7.51-43.91-7.51Zm-59.6,93.5c4.43-12.19,10.76-22.25,18.9-30,10.37-9.89,23-14.7,38.75-14.7,15.55,0,27.62,4.64,36.9,14.19,7.44,7.66,12.74,17.9,15.81,30.51Z"/><path class="cls-5" d="M1690.24,587.33v-5c0-2.86.17-12.35.49-27.45.32-15.41.49-42.07.49-79.24,0-14.82-.08-35.57-.25-63.44-.16-27-.41-52.9-.73-76.87l-.07-5.07h47.91v34c16.06-8.8,32.08-16.64,47.73-23.32,18-7.71,32.73-13.05,43.68-15.87l5-1.3,9.44,44.06-4.77,1.13c-8.72,2.06-22.37,6.52-40.55,13.25-17.5,6.48-37.88,15.16-60.6,25.83,0,3.65-.1,10.36-.22,21.41-.16,14.37-.24,28-.24,40.6,0,19.17.2,42.14.61,68.28.42,27.56.61,41.13.61,44v5Z"/><path class="cls-2" d="M1830.74,329.89l7.32,34.18q-13.43,3.18-41.13,13.43t-63.85,27.34q0,2.7-.24,24.54T1732.6,470q0,28.82.61,68.36t.61,43.94h-38.58q0-4.14.49-27.34t.49-79.35q0-22.69-.25-63.47t-.73-76.91h37.84v37.11l.25.25a544.24,544.24,0,0,1,54.44-27.1q26.85-11.47,43-15.63m7.59-12.28-10.09,2.6c-11.19,2.88-26.13,8.3-44.4,16.11-13.38,5.72-27,12.27-40.76,19.54v-30.6h-58l.13,10.14c.32,24,.57,49.8.73,76.83.17,27.86.25,48.61.25,63.41,0,37.13-.17,63.76-.49,79.14s-.49,24.61-.49,27.55v10h58.58v-10c0-2.91-.19-16.51-.62-44.1-.4-26.11-.6-49.05-.6-68.2,0-12.55.08-26.19.24-40.54.09-8.41.15-14.32.19-18.27,21.45-10,40.72-18.18,57.37-24.34,18-6.66,31.44-11.06,40-13.08l9.52-2.25-2.05-9.57-7.32-34.18-2.19-10.19Z"/></g></g></g></svg>