<svg xmlns="http://www.w3.org/2000/svg" viewBox="0 0 4000 4000"><defs><style>.cls-1{fill:#6c9;}.cls-2{fill:#e6e6e6;}</style></defs><g id="water"><g id="water-2" data-name="water"><path class="cls-1" d="M410.81,1172.26H3589.19L2000,3875ZM2000,3562.61,3313.35,1329H686.65Z"/><path class="cls-2" d="M3550,1194.68l-1550,2636-1550-2636H3550m-197.45,111.93H647.45L2000,3606.85,3352.55,1306.61m275.83-156.77H371.62l39.73,67.56,1550,2636,38.65,65.74,38.65-65.74,1550-2636,39.73-67.56ZM725.84,1351.45H3274.16L2000,3518.38,725.84,1351.45Z"/><path class="cls-1" d="M1267.77,921.4l-2.24-8.29c-1.22-4.56-12.48-38.09-59.14-172-35.61-102.15-82.56-229.51-139.66-378.85-50.06,123.93-96.84,244-139.21,357.39-43.74,117-69.53,186.07-72.62,194.42l-2.71,7.31H757.45l-2.3-8.17c-2.9-10.29-26.72-81.73-70.81-212.34C640.14,570,580.43,404.15,506.87,207.94L503,197.51l112.43-43,3.39,11.71c1,3.36,12.93,39.14,64.42,190.52,39,114.61,83.86,244.09,133.56,385.21,52.12-129.67,98.42-250.46,137.75-359.4,52.21-144.6,64.69-179.44,66-183.2l2.59-7.59h102.5l2,8.61c1,4.18,13.45,41.86,66.85,197.59,39.7,115.8,80.55,231,121.59,342.83,54.41-146.09,101.24-276.54,139.32-388.07,50.17-147,61.87-182.35,62.84-186.16l3-11.69,11.44,3.85,93.15,31.41L1621.56,201C1559.68,360.28,1501.28,518.82,1448,672.24S1366.31,907,1363.64,914.13l-2.73,7.27Z"/><path class="cls-2" d="M1529.08,169.29l82,27.66q-93.36,240.29-173.73,471.61t-84.24,241.63h-76.78q-2.77-10.29-59.38-172.75T1067.55,333.09h-1.1Q985.24,533.24,917,715.75T844.38,910.19H765.94q-4.43-15.72-71-212.89T517.36,204L608,169.29q2.21,7.61,64.58,191t143,411.87l1.14-.09Q901.78,561.56,965.06,386.3t66-183.38h85.63q2.19,9.22,67.15,198.63T1315.7,772.22l.85-.72Q1405.09,534.64,1466,356.29t63.09-187M622.75,139.6,600,148.35l-90.65,34.71-20.79,8,7.82,20.84C569.89,408,629.56,573.7,673.72,704.48c54.84,162.46,68.69,204.85,70.64,211.79l4.6,16.34H860L865.41,918C868.5,909.63,895,838.78,938,723.6c39.31-105.17,82.42-216.16,128.42-330.62,52.48,137.76,95.93,255.93,129.37,351.84,48.79,140,57.85,167.36,58.9,171.21l4.47,16.59h109.5l5.46-14.55c2.7-7.22,31.11-88.68,84.42-242.14,53.26-153.29,111.62-311.71,173.45-470.85l8.5-21.87-22.23-7.5-82-27.66-22.91-7.72-6,23.35c-1.34,4.82-13.32,41-62.61,185.38-35.56,104.14-78.75,224.79-128.63,359.28-37.49-102.77-74.76-208.16-111.06-314.05-52.38-152.77-65.15-191.35-66.59-196.7l-4.07-17.08H1015l-5.17,15.19c-1.27,3.72-13.73,38.49-65.9,183-36.48,101-79,212.29-126.53,331.37-45.76-130.2-87.27-250.06-123.63-357C642.75,202.94,630.67,166.86,629.54,163l-6.79-23.42Z"/><path class="cls-1" d="M1897.22,926.83a534.77,534.77,0,0,1-93.11-8.31c-31.36-5.57-58.85-13.7-81.7-24.17-30.93-14-56.4-33.57-75.67-58-19.74-25-29.75-55.49-29.75-90.46,0-36.94,11.78-69.41,35-96.52,22.62-26.39,54.27-48,94.06-64.11,24.46-10,57.41-19,97.92-26.92,37.14-7.23,79.65-12.89,126.5-16.87-2.88-21.17-9.09-38.94-18.49-52.93-10.81-16.08-27.1-28.55-48.43-37.06a217.41,217.41,0,0,0-51.5-13.14c-19.29-2.63-42.2-4-68.08-4-16.22,0-30.21.35-41.57,1.06-11,.69-26.51,1.58-47.31,2.72l-13.37.73,11.6-94.65,9.27-.6c5.78-.37,17.18-1,33-1.91,16.62-.91,39.41-1.37,67.74-1.37,44.19,0,84.26,4.59,119.1,13.65,35.63,9.27,65.71,24.61,89.4,45.57,22.27,19.95,39.25,44.85,50.54,74.06,11.13,28.83,16.77,70.61,16.77,124.18,0,88.36-.19,162.11-.55,219.19-.35,53.33-.56,86.51-.56,91V918.2l-10.13,1c-3.79.37-20.67,1.7-51.59,4.09C1985.54,925.63,1945.47,926.83,1897.22,926.83Zm74.57-298.1c-16.6,1.37-40.89,4.26-72.48,8.63-39.5,5.47-73.06,13.38-99.76,23.51l-.1,0a148.46,148.46,0,0,0-51.13,31.78c-13.81,13.1-20.53,28.89-20.53,48.28,0,21.91,5.73,38.87,17.53,51.85,12.26,13.52,29.45,24.06,51.08,31.36A289,289,0,0,0,1854.13,837a554.45,554.45,0,0,0,67.94,4c7.29,0,16.26-.18,26.69-.54l22.94-.75c0-6.37.12-15,.21-25,.18-21.51.27-50.5.27-86.14V681.85C1972.18,666.3,1972.05,648.83,1971.79,628.73Z"/><path class="cls-2" d="M1803.31,351.53q65.18,0,116.28,13.29t84.79,43.12q31.48,28.21,47.51,69.7t16,120.14q0,134.52-.55,219.12T2066.8,908q-5.52.54-51.37,4.07t-118.21,3.53a520.2,520.2,0,0,1-91.15-8.14q-45.85-8.13-79-23.32-44.2-20.05-71.54-54.78t-27.34-83.53q0-51.52,32.31-89.22t89.77-61q35.9-14.65,95.84-26.31t136.72-17.63q-3.31-42.3-21.54-69.42T1907.71,441a227.72,227.72,0,0,0-54.13-13.84q-29.83-4.06-69.61-4.06-24.85,0-42.25,1.08t-47.23,2.71l8.83-72.13q8.29-.54,32.87-1.9t67.12-1.36m118.76,500.63q11.06,0,27.07-.54t33.7-1.09q0-3.78.27-35.8t.28-86.24V681.85q0-28.2-.55-65.09-24.31,1.1-85.07,9.49t-102.19,24.14a158.77,158.77,0,0,0-55,34.17q-24,22.79-24,56.41,0,36.88,20.44,59.39t55.79,34.44a299.66,299.66,0,0,0,59.94,13.29,565,565,0,0,0,69.32,4.07m-118.76-523c-28.54,0-51.53.47-68.35,1.39-15.82.88-27.25,1.54-33.08,1.91l-18.55,1.2-2.26,18.45-8.84,72.14L1669,450.77l26.73-1.46c20.81-1.14,36.32-2,47.41-2.72s24.87-1,40.85-1c25.39,0,47.78,1.3,66.58,3.86a206.33,206.33,0,0,1,48.81,12.42c19.51,7.79,33.67,18.55,43.33,32.93,6.7,10,11.61,22.22,14.67,36.58-42.46,3.93-81.23,9.28-115.52,15.95-41.23,8-74.88,17.3-100,27.56-41.43,16.82-74.52,39.43-98.32,67.18-25,29.2-37.71,64.13-37.71,103.82,0,37.55,10.82,70.32,32.15,97.4,20.38,25.88,47.25,46.51,79.85,61.31,23.71,10.86,52.1,19.27,84.37,25a546.45,546.45,0,0,0,95.07,8.48c48.54,0,88.89-1.21,119.93-3.59s47.94-3.74,51.81-4.11l20.26-2V908c0-4.52.21-37.68.56-91,.36-57.13.55-130.9.55-219.27,0-55.73-5.73-97.67-17.52-128.22-11.93-30.87-29.92-57.22-53.47-78.32l0-.05,0,0c-25-22.15-56.65-38.31-94-48-35.77-9.3-76.79-14-121.93-14Zm118.76,500.63a544.17,544.17,0,0,1-66.57-3.9,278.9,278.9,0,0,1-55.45-12.26H1800c-19.8-6.68-35.4-16.19-46.36-28.27C1743.78,774.46,1739,760,1739,741c0-16.37,5.42-29.12,17-40.14a137.17,137.17,0,0,1,47.28-29.4l.11,0,.1,0c25.91-9.83,58.65-17.54,97.31-22.89,24.49-3.39,44.51-5.88,59.89-7.45.16,15.06.24,28.55.24,40.84v46.64c0,35.59-.09,64.54-.27,86,0,5.19-.09,10-.13,14.27l-12.17.4c-10.32.35-19.17.53-26.33.53Z"/><path class="cls-1" d="M2479.76,921.4C2402,921.4,2342,905,2301.51,872.57c-41.28-33-62.21-83.85-62.21-151.13,0-40,.28-83.48.83-129.22.52-43.09.79-96.71.82-159.51h-92.8V346.83h97.78V218.28h102.52V346.83h197.76v85.88H2348.37c-.12,11.6-.37,30.38-.75,56.75-.55,37.39-.83,65.44-.83,83.37V707.34c0,43.23,11.6,74.51,34.49,93,23.61,19.05,61.38,28.7,112.29,28.7,6.79,0,14.71-.09,23.52-.26,9.66-.19,15.34-.28,17.91-.28h12.94l-13,90-8.36,1.15c-1.92.27-6.1.68-20.18,1.18C2495.86,921.22,2487.14,921.4,2479.76,921.4Z"/><path class="cls-2" d="M2337.24,229.49V358H2535V421.5H2337.24q0,11.38-.83,67.8t-.83,83.53V707.34q0,70.51,38.67,101.7t119.32,31.18q9.93,0,23.75-.27c9.2-.17,15.09-.27,17.68-.27l-9.95,68.89q-3.87.52-19.06,1.08t-26.23.54q-113.25,0-171.25-46.37t-58-142.38q0-60.21.83-129.09t.83-170.85h-92.81V358h97.78V229.49h80.1m22.42-22.42H2234.72V335.62h-97.78v108.3h92.8c-.06,57.91-.33,107.68-.82,148.16-.55,45.8-.83,89.32-.83,129.36,0,70.86,22.35,124.65,66.42,159.89,21.66,17.32,48.56,30.41,79.95,38.91,30.32,8.21,65.74,12.37,105.3,12.37,7.52,0,16.36-.18,27-.55,14.45-.52,19-1,21.33-1.28l16.72-2.31,2.41-16.7,10-68.88,3.69-25.63H2535c-2.68,0-8.26.09-18.11.28-8.76.17-16.6.26-23.32.26-48.28,0-83.69-8.82-105.24-26.21-9.84-7.93-17.08-18.25-22.13-31.54-5.44-14.31-8.2-32-8.2-52.71V572.83c0-17.89.28-45.89.83-83.2.28-19.2.49-34.38.62-45.71h198V335.62H2359.66V207.07Z"/><path class="cls-1" d="M2953.34,920.32c-59.9,0-112.88-7.78-157.49-23.12-44.93-15.44-82.42-37.15-111.44-64.5-24.83-22.89-46.19-52.47-63.47-87.9-17.43-35.72-26.27-75.88-26.27-119.36,0-42.39,6.56-81.31,19.5-115.68s32.59-66.74,58.41-96.19c22.79-25.8,51.4-45.94,85.06-59.92a271.51,271.51,0,0,1,104.56-20.92c35.44,0,67.45,5.35,95.14,15.92a196.66,196.66,0,0,1,73.19,48.87c22.77,24.25,40.32,54.37,52.2,89.55,11.74,34.79,17.89,76.94,18.27,125.26l.08,11.3H2702c1.73,32.12,9.54,62.08,23.29,89.22,15.19,30,38.92,55.25,70.52,75,20.24,12.69,43.67,22.35,69.64,28.72,26.23,6.45,58.41,9.71,95.66,9.71,20.65,0,39.84-.54,57-1.6,17.64-1.1,28.11-1.8,32-2.15l14-1.26-13.05,94.63-8.55,1.06c-2.1.26-7.49.74-30.05,2C2995.7,919.86,2975.8,920.32,2953.34,920.32Zm37.72-379.86c-6.64-36.2-20.59-65.22-41.54-86.4-23.25-23.49-53.26-34.91-91.74-34.91-38.65,0-69.93,11.7-95.64,35.76-22.94,21.47-39.89,50.21-50.47,85.55Z"/><path class="cls-2" d="M2862.2,343.94q51.38,0,91.14,15.18a184.7,184.7,0,0,1,69,46.11q32.59,34.71,49.72,85.42t17.68,121.77H2690.4q.54,57.5,24.86,105.5t74.57,79.46q32,20.07,72.92,30.1t98.33,10q31.49,0,57.72-1.62t32.32-2.17l-9.95,72.13q-4.43.55-29.27,1.9t-58.56,1.36q-88.38,0-153.84-22.51t-107.44-62.1q-35.92-33.09-61-84.62t-25.14-114.44q0-61.83,18.79-111.73T2681,421q32.58-36.88,80.93-56.95a259,259,0,0,1,100.26-20.07M2697,551.67h307.13q-8.84-67.24-46.67-105.49t-99.71-38.24q-61.87,0-103.3,38.78T2697,551.67M2862.2,321.52a282.66,282.66,0,0,0-108.86,21.78c-35.25,14.63-65.23,35.77-89.13,62.81l0,0,0,0c-26.71,30.47-47.06,64-60.47,99.63s-20.22,75.89-20.22,119.63c0,45.2,9.22,87,27.41,124.28,17.88,36.67,40.05,67.34,65.9,91.17,30.17,28.44,69,51,115.44,66.91,45.78,15.75,100,23.73,161.13,23.73,22.66,0,42.77-.47,59.77-1.39,22.65-1.23,28.36-1.73,30.81-2L3061,926l2.35-17.07,9.95-72.14,3.85-27.92-28.07,2.53c-3.74.33-14.4,1.05-31.7,2.12-16.95,1-35.91,1.58-56.33,1.58-36.35,0-67.63-3.16-93-9.38-24.81-6.09-47.14-15.28-66.36-27.33-29.86-18.68-52.22-42.43-66.48-70.59a208.45,208.45,0,0,1-21.16-72.95h398.28l-.17-22.59c-.39-49.52-6.74-92.84-18.86-128.76-12.4-36.72-30.77-68.21-54.61-93.61l0,0,0,0a207.9,207.9,0,0,0-77.33-51.63c-29-11.06-62.33-16.66-99.14-16.66Zm-135,207.73c10-26.85,24.27-49,42.56-66.16,23.53-22,52.31-32.73,88-32.73,35.33,0,62.73,10.33,83.77,31.59a128.82,128.82,0,0,1,26,38.8,174.49,174.49,0,0,1,9.62,28.5Z"/><path class="cls-1" d="M3181.42,918.15V906.94c0-6.39.38-27.48,1.11-61,.73-34.24,1.1-93.47,1.1-176,0-32.87-.18-79-.55-140.95-.37-60-.93-117.49-1.66-170.77l-.16-11.36h108.2v75.58c36.41-19.61,72.73-37.05,108.19-51.93,40.81-17.12,74.06-29,98.81-35.24l11.23-2.84,21.4,98.06-10.77,2.5c-19.76,4.59-50.64,14.5-91.79,29.45-39.61,14.39-85.71,33.69-137.12,57.4-.07,8.13-.23,23-.5,47.45-.37,31.89-.55,62.23-.55,90.18,0,42.61.46,93.65,1.38,151.69.94,60.37,1.38,91.45,1.38,97.81v11.21Z"/><path class="cls-2" d="M3499.21,346.11,3515.78,422q-30.37,7.06-93.08,29.83t-144.45,60.75q0,6-.55,54.51t-.55,90.31q0,64,1.38,151.87t1.38,97.63h-87.28q0-9.23,1.1-60.75t1.11-176.28q0-50.43-.55-141T3192.63,358h85.62v82.44l.55.55A1244.46,1244.46,0,0,1,3402,380.82q60.75-25.49,97.22-34.71m17-27.42-22.46,5.68c-25.3,6.41-59.08,18.44-100.39,35.78-30.43,12.76-61.47,27.39-92.65,43.64V335.62H3169.9l.31,22.73c.73,53.19,1.29,110.61,1.66,170.68.37,61.9.55,108,.55,140.88,0,82.49-.37,141.64-1.1,175.8s-1.11,54.68-1.11,61.23v22.42h132.12V906.94c0-6.48-.43-36.7-1.39-98-.91-58-1.37-109-1.37-151.52,0-27.88.18-58.18.55-90.05.21-18.53.35-31.58.43-40.37,48.53-22.22,92.15-40.39,129.81-54.07,40.73-14.8,71.17-24.58,90.49-29.07l21.56-5-4.72-21.62-16.57-75.93-4.95-22.64Z"/></g></g></svg>