<?xml version="1.0" encoding="UTF-8" standalone="no"?>
<!DOCTYPE svg PUBLIC "-//W3C//DTD SVG 1.1//EN" "http://www.w3.org/Graphics/SVG/1.1/DTD/svg11.dtd">
<svg width="100%" height="100%" viewBox="0 0 65 64" version="1.1" xmlns="http://www.w3.org/2000/svg" xmlns:xlink="http://www.w3.org/1999/xlink" xml:space="preserve" xmlns:serif="http://www.serif.com/" style="fill-rule:evenodd;clip-rule:evenodd;stroke-linejoin:round;stroke-miterlimit:2;">
    <g transform="matrix(1,0,0,1,-256,-8)">
        <g id="gitHub-logo" transform="matrix(0.472204,0,0,0.618964,134.75,2.8552)">
            <rect x="256.775" y="8.312" width="137.066" height="103.399" style="fill:none;"/>
            <g transform="matrix(1.55379e-16,1.93587,-2.53753,1.18538e-16,325.307,60.8552)">
                <path d="M24.558,6.621C21.641,17.45 11.745,25.43 0,25.43C-14.035,25.43 -25.43,14.035 -25.43,0C-25.43,-14.035 -14.035,-25.43 0,-25.43C11.518,-25.43 21.258,-17.755 24.381,-7.245L14.926,-7.245C13.833,-7.245 12.858,-6.739 12.223,-5.947C10.449,-12.555 5.748,-17.283 0.235,-17.283C-2.65,-17.283 -5.312,-15.989 -7.449,-13.808C-10.153,-14.055 -15.162,-13.908 -15.162,-13.908C-15.162,-13.908 -14.522,-8.607 -11.879,-5.457C-12.288,-3.775 -12.509,-1.979 -12.509,-0.114C-12.509,1.994 -12.226,4.014 -11.709,5.881C-14.067,8.808 -14.6,13.617 -14.6,13.617C-14.6,13.617 -10.061,13.706 -7.563,13.462C-5.407,15.714 -2.702,17.055 0.235,17.055C5.832,17.055 10.591,12.183 12.301,5.417C12.888,6.098 13.735,6.548 14.688,6.613C15.072,7.016 16.189,8.393 15.481,10.141C14.786,11.857 12.988,13.103 11.306,15.052C8.881,17.861 11.166,22.371 11.543,19.574C11.768,17.899 13.294,16.242 15.291,15.426C16.15,15.075 18.603,13.305 19.122,11.803C19.714,10.09 19.517,8.049 19.242,6.621L24.558,6.621Z" style="fill:rgb(31,35,41);"/>
            </g>
        </g>
    </g>
</svg>
