<?xml version="1.0" encoding="UTF-8" standalone="no"?>
<!DOCTYPE svg PUBLIC "-//W3C//DTD SVG 1.1//EN" "http://www.w3.org/Graphics/SVG/1.1/DTD/svg11.dtd">
<svg width="100%" height="100%" viewBox="0 0 265 172" version="1.1" xmlns="http://www.w3.org/2000/svg" xmlns:xlink="http://www.w3.org/1999/xlink" xml:space="preserve" xmlns:serif="http://www.serif.com/" style="fill-rule:evenodd;clip-rule:evenodd;stroke-linejoin:round;stroke-miterlimit:2;">
    <g id="black-hair" transform="matrix(1,0,0,1,-5.48276,-51.97)">
        <path d="M154.61,221.08C129.53,221.08 112.88,204.38 98.13,186.81C87.06,196.81 75.81,201.94 64.67,201.94C52.86,201.94 41.42,196.1 31.58,185.05C15.11,166.56 5.14,135.89 7.87,112.05C8.085,98.307 13.891,85.228 23.94,75.85C33.916,66.315 47.2,60.992 61,61C71.496,61.055 81.765,64.075 90.62,69.71C92.215,70.606 93.938,71.25 95.73,71.62C98.63,59.9 106.35,53.96 118.66,53.96C137.24,53.96 163.14,68.12 177.29,75.89C177.997,75.343 178.665,74.748 179.29,74.11C183.29,70.18 190.74,62.85 207.49,62.85C216.994,62.965 226.03,67.046 232.4,74.1C239.369,81.679 242.859,91.838 242.02,102.1L242.02,102.36C240.11,110.92 245.66,117.16 252.09,124.36C256.37,129.16 260.79,134.13 263.18,140.19C266.24,147.95 272.03,171.19 262.23,185.62C257,193.18 248.35,197 236.52,197C229.27,197 220.68,195.52 211.01,192.62C207.465,191.499 203.777,190.896 200.06,190.83C188.06,190.83 182.14,198.42 175.82,206.46C170.93,212.69 165.88,219.13 157.94,220.92L157.62,220.92C156.62,220.98 155.62,221 154.62,221L154.61,221.08Z" style="fill-rule:nonzero;"/>
    </g>
    <g id="white-outline" transform="matrix(1,0,0,1,-5.48276,-51.97)">
        <path d="M118.66,55.86C136.33,55.86 160.66,68.92 176.66,77.75C176.828,77.844 177.018,77.892 177.21,77.89C180.38,77.89 185.39,64.75 207.4,64.75C225.97,64.75 241.65,81.88 239.99,101.89C236.49,117.57 255.47,126.23 261.24,140.89C265.24,151.05 275.78,195.1 236.48,195.1C229.72,195.1 221.48,193.8 211.48,190.81C207.755,189.63 203.877,189 199.97,188.94C177.09,188.94 174.07,215.32 157.43,219.07C156.43,219.13 155.43,219.15 154.53,219.15C128.65,219.15 111.62,200.15 98.22,184C86.4,195.29 75,200 64.67,200C29.67,200 5.85,146.32 9.81,112.2C10.1,84.84 33.71,62.9 61,62.9C71.15,62.969 81.078,65.898 89.64,71.35C98.202,76.802 96.74,76.039 98.028,72.796C100.951,65.438 108.37,55.86 118.66,55.86M118.66,51.97C106.2,51.97 97.85,57.97 94.37,69.22C93.416,68.879 92.487,68.471 91.59,68C82.446,62.178 71.84,59.057 61,59C46.689,59.014 32.924,64.56 22.6,74.47C12.188,84.198 6.167,97.753 5.93,112C3.18,136.29 13.34,167.53 30.13,186.38C40.35,197.86 52.3,203.92 64.67,203.92C75.79,203.92 86.96,199.12 97.93,189.62C104.05,196.85 111.15,204.62 119.47,210.78C130.67,219 142.16,223 154.62,223C155.62,223 156.69,223 157.73,222.91L158.05,222.91L158.37,222.84C166.98,220.9 172.25,214.19 177.37,207.69C183.37,200.03 189.06,192.8 200.07,192.8C203.601,192.868 207.103,193.444 210.47,194.51C220.33,197.51 229.1,198.97 236.54,198.97C249.05,198.97 258.21,194.83 263.76,186.67C274.04,171.58 268.08,147.46 264.92,139.44C262.4,133.06 257.86,127.96 253.47,123.03C247.4,116.21 242.15,110.31 243.85,102.72L243.91,102.46L243.91,102.2C244.783,91.4 241.109,80.711 233.78,72.73C227.038,65.283 217.485,60.978 207.44,60.86C189.9,60.86 182.08,68.55 177.88,72.68L177.04,73.49C157.73,62.93 136,52 118.66,52L118.66,51.97Z" style="fill:white;fill-rule:nonzero;"/>
    </g>
    <g id="two-monkeys-m" transform="matrix(1,0,0,1,-5.48276,-51.97)">
        <path d="M176.69,116.126C173.636,119.371 170.129,122.871 168.44,127.25C168.409,127.336 168.373,127.419 168.33,127.5C157.22,150.4 170.01,171.25 171.01,186.92C171.077,187.867 170.78,188.804 170.18,189.54C162.46,198.76 131.87,196.82 121.97,186.38C116.06,179.73 139.71,176.1 138.06,137.28C137.61,131.07 137.11,124.13 132.7,117.07C126.01,106.54 110.42,86.12 126.3,84.47C140.74,82.62 181.59,97.26 182.21,106.34C182.25,106.939 182.204,107.526 182.082,108.105C185.671,107.13 187.535,105.631 187.31,94.36C187.11,84.61 198.42,77.69 208.51,80.22C219,82.44 227,91.32 227.9,98.97C228.127,100.754 227.358,102.527 225.9,103.58C223.18,105.54 219.05,107.22 217.05,110.9C216.549,111.815 216.356,112.867 216.5,113.9C218.38,127.57 257.68,153.78 258,160.44C258.75,176.09 234.9,184.19 221.69,176.44C221.455,176.307 221.211,176.19 220.96,176.09C205.78,169.98 215.35,133.46 202.29,128.76C200.895,128.279 199.354,128.452 198.1,129.23C195.773,130.797 193.94,132.997 192.82,135.57C191.973,137.257 190.24,138.326 188.352,138.326C186.754,138.326 185.25,137.561 184.31,136.27C180.171,130.421 175.644,123.205 176.69,116.126Z" style="fill:rgb(251,176,59);"/>
        <clipPath id="_clip1">
            <path d="M176.69,116.126C173.636,119.371 170.129,122.871 168.44,127.25C168.409,127.336 168.373,127.419 168.33,127.5C157.22,150.4 170.01,171.25 171.01,186.92C171.077,187.867 170.78,188.804 170.18,189.54C162.46,198.76 131.87,196.82 121.97,186.38C116.06,179.73 139.71,176.1 138.06,137.28C137.61,131.07 137.11,124.13 132.7,117.07C126.01,106.54 110.42,86.12 126.3,84.47C140.74,82.62 181.59,97.26 182.21,106.34C182.25,106.939 182.204,107.526 182.082,108.105C185.671,107.13 187.535,105.631 187.31,94.36C187.11,84.61 198.42,77.69 208.51,80.22C219,82.44 227,91.32 227.9,98.97C228.127,100.754 227.358,102.527 225.9,103.58C223.18,105.54 219.05,107.22 217.05,110.9C216.549,111.815 216.356,112.867 216.5,113.9C218.38,127.57 257.68,153.78 258,160.44C258.75,176.09 234.9,184.19 221.69,176.44C221.455,176.307 221.211,176.19 220.96,176.09C205.78,169.98 215.35,133.46 202.29,128.76C200.895,128.279 199.354,128.452 198.1,129.23C195.773,130.797 193.94,132.997 192.82,135.57C191.973,137.257 190.24,138.326 188.352,138.326C186.754,138.326 185.25,137.561 184.31,136.27C180.171,130.421 175.644,123.205 176.69,116.126Z"/>
        </clipPath>
        <g clip-path="url(#_clip1)">
            <g id="m2mouth2eyes">
                <g id="m2rte" transform="matrix(0.333478,-0.942758,0.942758,0.333478,-4.92,210.7)">
                    <ellipse cx="146.55" cy="108.83" rx="6.67" ry="6.72" style="fill:rgb(220,159,1);"/>
                </g>
                <g id="m2mth" transform="matrix(0.333478,-0.942758,0.942758,0.333478,-66.02,265.5)">
                    <ellipse cx="154.76" cy="179.44" rx="6.67" ry="6.72" style="fill:rgb(220,159,1);"/>
                </g>
                <g id="m2lte" transform="matrix(0.333478,-0.942758,0.942758,0.333478,6.71,234.58)">
                    <ellipse cx="169.25" cy="112.55" rx="6.67" ry="6.72" style="fill:rgb(220,159,1);"/>
                </g>
            </g>
            <g id="m3mouth2eyes">
                <g id="m3mth" transform="matrix(0.333478,-0.942758,0.942758,0.333478,-1.61,339.28)">
                    <ellipse cx="239.14" cy="170.77" rx="6.67" ry="6.72" style="fill:rgb(220,159,1);"/>
                </g>
                <g id="m3lte" transform="matrix(0.333478,-0.942758,0.942758,0.333478,47.69,261.61)">
                    <ellipse cx="208.86" cy="97.07" rx="6.67" ry="6.72" style="fill:rgb(220,159,1);"/>
                </g>
                <g id="m3rte" transform="matrix(0.333478,-0.942758,0.942758,0.333478,17.44,259.66)">
                    <ellipse cx="192.36" cy="117.5" rx="6.67" ry="6.72" style="fill:rgb(220,159,1);"/>
                </g>
            </g>
        </g>
    </g>
    <g id="one-monkey-t" transform="matrix(1,0,0,1,-5.48276,-51.97)">
        <path d="M58.84,86.12C43.62,77.75 36.39,81.38 27.9,97.88C17.9,115.19 25.61,119.34 46.9,117.68C51.27,117.38 54.19,116.17 56.8,118.1C64.06,127.56 58.63,140.27 50.2,157.5C38.77,175.68 42.31,180.32 55.2,186.38C81.52,195.86 95.52,162.38 87.2,143.68C86.33,141.86 79.86,121.68 83.89,119.95C87.66,117.82 97.25,123.78 99.99,124.29C122.47,127.07 115.06,94.93 105.35,88.39C94.66,81.55 72.55,95.38 58.84,86.12Z" style="fill:rgb(251,176,59);fill-rule:nonzero;"/>
        <clipPath id="_clip2">
            <path d="M58.84,86.12C43.62,77.75 36.39,81.38 27.9,97.88C17.9,115.19 25.61,119.34 46.9,117.68C51.27,117.38 54.19,116.17 56.8,118.1C64.06,127.56 58.63,140.27 50.2,157.5C38.77,175.68 42.31,180.32 55.2,186.38C81.52,195.86 95.52,162.38 87.2,143.68C86.33,141.86 79.86,121.68 83.89,119.95C87.66,117.82 97.25,123.78 99.99,124.29C122.47,127.07 115.06,94.93 105.35,88.39C94.66,81.55 72.55,95.38 58.84,86.12Z" clip-rule="nonzero"/>
        </clipPath>
        <g clip-path="url(#_clip2)">
            <g id="m1mouth2eyes">
                <g id="m1mth" transform="matrix(0.333478,-0.942758,0.942758,0.333478,-114.91,179.01)">
                    <ellipse cx="69.14" cy="170.77" rx="6.67" ry="6.72" style="fill:rgb(220,159,1);"/>
                </g>
                <g id="m1lte" transform="matrix(0.333478,-0.942758,0.942758,0.333478,-41.03,152.96)">
                    <ellipse cx="87.66" cy="105.5" rx="6.67" ry="6.72" style="fill:rgb(220,159,1);"/>
                </g>
                <path id="m1rte" d="M49.4,98.56C56.4,93.62 64.08,101.29 59.12,108.26C58.984,108.455 58.815,108.624 58.62,108.76C51.62,113.7 43.94,106.03 48.9,99.06C49.038,98.867 49.207,98.698 49.4,98.56Z" style="fill:rgb(220,159,1);fill-rule:nonzero;"/>
            </g>
        </g>
    </g>
</svg>
