<?xml version="1.0" encoding="utf-8"?>
<!-- Generator: Adobe Illustrator 25.1.0, SVG Export Plug-In . SVG Version: 6.00 Build 0)  -->
<svg version="1.1" id="Layer_1" xmlns:serif="http://www.serif.com/"
	 xmlns="http://www.w3.org/2000/svg" xmlns:xlink="http://www.w3.org/1999/xlink" x="0px" y="0px" viewBox="0 0 1080 1080"
	 style="enable-background:new 0 0 1080 1080;" xml:space="preserve">
<style type="text/css">
	.st0{fill:#3B4D81;stroke:#000000;stroke-width:1.2827;stroke-linejoin:round;stroke-miterlimit:2.5653;}
	.st1{fill:#B3262A;}
	.st2{fill:#FFD105;}
</style>
<g id="TMBlackBack">
	<g>
		<g transform="matrix(1,0,0,1,0.03,-0.03)">
			<path id="hair" class="st0" d="M281.7,283.2c-14.1,1.7-28.1-13.9-38-28.1v28.5l-42.2-16.5l22.6,25.3c-12.3-3.6-44.4-11.1-80,1.4
				c-9.3,3.3-18.2,7.7-26.4,13.2c-4.7,3.2-8.6,7.4-11.3,12.5c-5.3,9.9-9.5,20.3-12.5,31.1c-3.7,13.1-15.8,58.6,8.3,108.2
				c18.1,37.4,48.1,59.1,68.7,70.5c6.4,3.6,13.1,6.7,19.9,9.4l13.8-32.3c10.4,21.6,14.8,45.6,12.5,69.5
				c-2.3,22.8-10.4,44.6-23.6,63.3l50.1-15.5l-26.5,36.1l42.9-9.5l27.7,37.9l27.7-17.8l15.1,35.9l65-25.8l11.2,46.4l22.1-56.5
				l11.1-28.1l12.7,28.1l-12.7,33.3l44.3-33.3l41.5,30.8l90.3-50.7l63.4,20l-14.1-49.2l32.2,21.1l-18.2-56.8l18.2-32.1l18.2,44.5
				l16.7-21.9l30.1,66.4l31.9-23.6l27.4,23.6l35.7-44.5l33.2,44.4v-56.8l42.9,22.9v-55l49.2,22.6L958,523l38.8,3.2l-47.1-40.3
				c-4.3-11.7-9.6-22.9-16-33.5c-35.4-58.8-84.3-68.6-83.7-101.8c0.4-21.8,21.9-29.7,16.7-49c-4.3-15.7-22.7-25.2-38.8-30.9
				l44.3-15.5c-21-7.1-42.8-11.4-64.9-12.9c-74.6-5-132.1,24.1-156.7,38.7c-7.5-3.6-18.3-8.6-31.5-14c-45-18.5-72.7-30.1-107-29.8
				c-15.1,0.1-25.4,2.4-42.1,6.1c-43.4,9.7-57.9,23.3-95,35.1c-23,7.2-46.8,11.5-70.9,12.6c3.6-3.8,7.7-7.2,12.1-10.2
				c15.4-10.3,29.2-10.9,29-12.3c-0.3-1.9-24.8-4.9-47,6.3C289.1,279.2,287.6,282.5,281.7,283.2"/>
		</g>
		<path class="st1" d="M477.4,501c2.2,2.1,2.2,5.6,0,7.8c-1.1,1.1-2.5,1.6-3.9,1.6c-1.4,0-2.8-0.5-3.9-1.6l-19-19l-19,19
			c-1.1,1.1-2.5,1.6-3.9,1.6c-1.4,0-2.8-0.5-3.9-1.6c-2.2-2.1-2.2-5.6,0-7.8l19-19l-19-19c-2.2-2.2-2.2-5.6,0-7.8
			c2.2-2.1,5.6-2.1,7.8,0l19,19l19-19c2.2-2.1,5.6-2.1,7.8,0c2.2,2.2,2.2,5.6,0,7.8l-19,19L477.4,501z"/>
		<g id="faceShapes">
			<g transform="matrix(1,0,0,1,0.03,-0.03)">
				<path class="st2" d="M172.9,308.4c-54.2,23.3-56.5,152.6-6,177.9c32.3,16.2,54.4-33.2,80.4-16.2c38,24.9-8.5,124.6,34.2,170.7
					c32.9,35.5,115.9,35.9,132.7,10.8c26.9-40.2-117.1-144.9-90.5-177.9c17-21.2,81.3,15.9,112.6-10.8
					c35.8-30.4,10.5-128.6-44.2-149.1c-25.7-9.7-16.7,17.7-72.4,19.8C248.4,336.2,203.9,295.1,172.9,308.4z"/>
			</g>
			<g transform="matrix(1,0,0,1,0.03,-0.03)">
				<path class="st2" d="M464.9,636.5c-6.6-8.6,6.8-19.5,28-61.6c13.5-26.9,36.3-72.2,39.7-110.2c7.4-82.8-78.5-128.3-56.9-156
					c22.3-28.6,114,3.3,129.2,8.6c24.7,8.6,55.1,19.5,60.1,41.2c4.1,17.9-12.4,29-23.1,49c-32.4,60.3,34.3,113.7,15.4,166.1
					C633.3,639.4,488.4,667.3,464.9,636.5z"/>
			</g>
			<g transform="matrix(1,0,0,1,0.03,-0.03)">
				<path class="st2" d="M670.1,376.3c-29.8,21.3-35,59.5-13.6,78.7c19.5,17.5,30.8,52.6,45.8,18.8c12.1-27.3,36.1-42.3,46.3-40.3
					c16,3.2-16.4,100.3,23.7,130.5c42.3,31.9,159.9-15,161.5-56.8c1.9-47.4-145.9-74.9-140.6-128.1c2.6-26.9,42-34.5,40-61.6
					c-2.1-27.1-42.2-56.2-80-51.5c-37.5,4.6-64.8,41.5-59,51.8c2.6,4.7,13.2,5.6,12.8,8.8c-0.3,2.7-7.6,2-10.8,6.8
					c-4.2,6.1,1.9,15.6,0,16.5c-1.7,0.8-5.5-7.3-9.9-7.3C682.4,342.7,676.9,349,670.1,376.3z"/>
			</g>
		</g>
		<path class="st1" d="M862.1,528.3c2.7,1.5,3.6,4.8,2.2,7.5c-0.7,1.3-1.9,2.2-3.3,2.6c-1.4,0.4-2.8,0.3-4.2-0.5l-23.5-13l-13,23.5
			c-0.7,1.3-1.9,2.2-3.3,2.6c-1.4,0.4-2.8,0.3-4.2-0.5c-2.7-1.5-3.6-4.8-2.2-7.5l13-23.5l-23.6-13c-2.7-1.5-3.6-4.8-2.2-7.5
			c1.5-2.7,4.8-3.6,7.5-2.2l23.6,13l13-23.6c1.5-2.7,4.8-3.6,7.5-2.2c2.7,1.5,3.6,4.8,2.2,7.5l-13,23.6L862.1,528.3z"/>
		<path class="st1" d="M409.9,418.4c2.2,2.1,2.2,5.6,0,7.8c-1.1,1.1-2.5,1.6-3.9,1.6c-1.4,0-2.8-0.5-3.9-1.6l-19-19l-19,19
			c-1.1,1.1-2.5,1.6-3.9,1.6c-1.4,0-2.8-0.5-3.9-1.6c-2.2-2.1-2.2-5.6,0-7.8l19-19l-19-19c-2.2-2.2-2.2-5.6,0-7.8
			c2.2-2.1,5.6-2.1,7.8,0l19,19l19-19c2.2-2.1,5.6-2.1,7.8,0c2.2,2.2,2.2,5.6,0,7.8l-19,19L409.9,418.4z"/>
		<path class="st1" d="M237.3,418.4c2.2,2.1,2.2,5.6,0,7.8c-1.1,1.1-2.5,1.6-3.9,1.6c-1.4,0-2.8-0.5-3.9-1.6l-19-19l-19,19
			c-1.1,1.1-2.5,1.6-3.9,1.6c-1.4,0-2.8-0.5-3.9-1.6c-2.2-2.1-2.2-5.6,0-7.8l19-19l-19-19c-2.2-2.2-2.2-5.6,0-7.8
			c2.2-2.1,5.6-2.1,7.8,0l19,19l19-19c2.2-2.1,5.6-2.1,7.8,0c2.2,2.2,2.2,5.6,0,7.8l-19,19L237.3,418.4z"/>
	</g>
	<g>
		<g transform="matrix(1,0,0,1,0.03,-0.03)">
			<path d="M93.4,775.1c-0.1-0.3-0.1-0.6-0.1-0.9c-0.9-9.3-1.4-16.4-1.6-21.1l-19.9,0.4c-6.1,0.1-10.6,0.1-13.4,0l-24.5-0.4h-5.4
				c-0.5,6.3-0.8,11.5-1.1,15.4l-0.2,2.9c-0.1,0.9-0.1,1.9-0.1,2.8c0,1.8,0.5,2.7,1.4,2.7c1,0,1.4-1.3,1.7-3.8
				c0.9-8.5,3.8-13.7,8.9-15.6c1.9-0.8,6.8-1.2,14.8-1.3v76.3c0,2.8-0.2,4.5-0.6,5.2c-0.7,1.1-2.3,1.7-4.8,1.7
				c-3.4,0.1-5.1,0.5-5.1,1.3c0,0.7,0.9,1,2.8,1c3.6,0,6.6-0.1,8.9-0.2c2.3-0.1,4.8-0.2,7.4-0.2c2,0,5.4,0.1,10.3,0.3
				c0.6,0.1,1.1,0.1,1.7,0.1c1.3,0,1.9-0.4,1.9-1.1s-0.5-1-1.4-1.1c-3.7-0.1-5.9-0.3-6.7-0.8c-1.5-0.8-2.3-2.7-2.3-5.7v-76.8
				c0.8-0.1,3.1-0.1,6.8-0.3c2,0,4,0.2,6,0.6c3.4,0.5,6.4,2.4,8.3,5.3c1.4,2.4,2.3,5,2.8,7.8c0.2,1.5,0.3,3.1,0.5,4.6
				c0.4,2.2,1.1,3.3,2,3.3c1,0,1.4-0.6,1.4-1.7C93.5,775.6,93.4,775.4,93.4,775.1z"/>
		</g>
		<g transform="matrix(1,0,0,1,0.03,-0.03)">
			<path d="M114.7,809.8V789c-0.1-1,0.1-1.9,0.7-2.7c1.1-0.5,2.2-0.7,3.4-0.6c7.1,0,10.6,3.8,10.6,11.4
				C129.4,805.6,124.5,809.8,114.7,809.8z M145.7,835.6c-0.1,0-0.2,0-0.3,0c-1.1,0-2.1,0.9-2.1,2.1c0,0.1,0,0.2,0,0.3
				c0,0.4,0.1,0.7,0.3,1.1c0.1,0.3,0.2,0.5,0.3,0.8c0,0.2-0.2,0.4-0.6,0.4c-2.5,0-4-2.6-4.4-7.8c-0.7-7.7-2.3-13-4.9-16
				c-2.5-2.9-7.1-4.8-13.9-5.6c6.2-0.4,11.1-1.9,14.5-4.5c3.3-2.3,5.2-6.1,5.1-10.1c0.1-3.7-1.8-7.1-4.9-9.2
				c-3.2-2.3-7.5-3.5-12.9-3.5H99.4c-1.1,0-1.7,0.3-1.7,0.9s0.9,1,2.8,1c1.2-0.1,2.4,0,3.5,0.4c0.5,0.5,0.8,1.2,0.7,1.8V838
				c0,1.2-1.4,1.8-4.1,1.8h-1.7c-0.8,0-1.2,0.3-1.2,0.9s1.1,0.8,3.4,0.8h19.3c1.1,0,1.7-0.3,1.7-0.9s-0.4-0.9-1.3-0.9
				c-4.3,0-6.3-0.6-6-1.8v-26.2c4.4,0.2,7.5,1,9.3,2.4s2.9,4,3.3,7.6c0.3,3.6,0.7,7.2,1.4,10.8c0.5,1.7,1.3,3.2,2.4,4.5
				c2.5,3.3,6.4,5.3,10.5,5.2c4.5,0,6.7-1.3,6.7-4.1c0-0.1,0-0.2,0-0.3c0-1.3-1.1-2.3-2.3-2.3C145.9,835.6,145.8,835.6,145.7,835.6z
				"/>
		</g>
		<g transform="matrix(1,0,0,1,0.03,-0.03)">
			<path d="M172.3,839.8c-1.4,0-2.9-0.2-4.3-0.6c-0.6-0.3-1-1-0.9-1.7v-47.9c-0.1-1.2,0-2.4,0.4-3.5c0.2-0.4,0.9-0.6,2-0.6
				c2.7-0.1,4.1-0.4,4.1-0.9c0-0.5-0.6-1-1.9-1H152c-1,0-1.6,0.3-1.6,0.9s0.4,0.9,1.1,0.9h3.6c1,0.1,1.6,0.4,1.8,1
				c0.2,2,0.3,3.9,0.2,5.9v41.2c0.1,1.8,0,3.7-0.2,5.5c-0.1,0.4-1.4,0.7-3.8,0.9c-1.8,0.1-2.6,0.4-2.6,1c0,0.6,0.7,0.7,2.1,0.7h20.2
				c0.7,0,1.1-0.3,1.1-0.8C173.8,840.2,173.3,839.9,172.3,839.8z"/>
		</g>
		<g transform="matrix(1,0,0,1,0.03,-0.03)">
			<path d="M196,810.9v-22c0-1.6,0.2-2.6,0.7-2.9c1.2-0.5,2.4-0.6,3.7-0.5c6.7,0,10.1,4,10.1,12.1
				C210.5,806.5,205.7,810.9,196,810.9z M208.2,784.2c-2.3-0.4-8.6-0.6-18.9-0.6c-5.1,0-8.1,0-9,0.1c-0.9,0.1-1.3,0.3-1.3,0.8
				c0,0.7,0.4,1,1.3,1h1.6c2.4,0,3.7,0.4,3.9,1.2c0.1,0.2,0.1,2.1,0.1,5.5v42.6c0.1,1.4,0,2.9-0.2,4.3c-0.2,0.3-0.4,0.4-0.7,0.4
				c-0.3,0-1.4,0.2-3.2,0.3H180c-0.6-0.1-1,0.2-1,0.8s0.6,0.8,1.7,0.8c1.1,0.1,5.1,0.1,11.9,0.1c5.4,0,8.6,0,9.5-0.1
				c0.9-0.1,1.4-0.3,1.4-0.8s-0.4-0.9-1.3-0.9c-1.5,0-3-0.1-4.5-0.3c-1.1-0.2-1.6-1.5-1.6-3.7v-23h0.7c2.3,0.3,3.8,0.4,4.8,0.4
				c5.8,0,10.5-1.4,14.1-4.3c3.5-2.7,5.5-6.9,5.4-11.3C221,790.2,216.7,785.8,208.2,784.2z"/>
		</g>
		<g transform="matrix(1,0,0,1,0.03,-0.03)">
			<path d="M270.3,824.4c-0.7,0-1.2,1-1.3,3.1c-0.5,4.7-1.6,7.7-3.3,9.2c-2.2,1.8-7.5,2.7-16.1,2.7c-1.4,0-3.7,0-6.9-0.1v-47.3
				c-0.1-1.8,0-3.7,0.4-5.5c0.2-0.5,1-0.8,2.3-0.9c2.6-0.1,4-0.4,4-0.8c0-0.7-0.8-1.1-2.3-1.1h-19.5c-1.1,0-1.6,0.3-1.6,0.9
				s0.4,1,1.3,1c0.7,0.1,1.4,0.1,2.1,0.1c0.7-0.1,1.4,0,2.1,0.3c0.7,0.3,1.1,2.8,1.1,7.5v42.7c0.1,0.9,0,1.9-0.3,2.8
				c-0.2,0.3-0.7,0.6-1.6,0.6c-3.1,0.2-4.7,0.6-4.7,1.1c0,0.5,0.5,0.8,1.6,0.8h9.9l20.5,0.3h5.6c1.5,0,3,0,4.5,0.2
				c1.2,0.1,1.8,0.2,1.9,0.2c0.6,0,1.2,0,1.8-0.1c0.2-3.2,0.2-7.2,0.2-12C271.9,826.3,271.3,824.4,270.3,824.4z"/>
		</g>
		<g transform="matrix(1,0,0,1,0.03,-0.03)">
			<path d="M319.9,824.3c-0.8,0-1.3,0.6-1.3,1.9c-0.6,7.2-2.4,11.3-5.6,12.2c-2.1,0.6-9,0.9-20.7,1V812h3c5.1,0,8.2,0.4,9.4,1.3
				c1.1,0.8,1.9,3.6,2.4,8.2c0.2,2.1,0.7,3.2,1.4,3.2c0.7,0,1.2-0.7,1.2-2c0-0.4,0-1-0.1-1.6c-0.2-2-0.3-5.8-0.3-11.3
				c0-1.1,0-2.7,0.2-4.8s0.2-3.7,0.2-4.7c0-1.7-0.4-2.6-1.2-2.6c-0.8,0-1.2,1.2-1.4,3.6c-0.4,4-1.2,6.4-2.4,7.3
				c-1.2,0.9-4.3,1.3-9.4,1.3h-2.9V786h6.1c6.5,0,10.7,0.3,12.4,0.9c3.1,1.1,5.2,4.9,6.3,11.3c0.3,1.7,0.8,2.6,1.6,2.6
				s0.8-0.5,0.8-1.6c0-0.5,0-1-0.1-1.5c-0.5-6.3-0.8-10-1-11.3l-0.1-1.9v-0.9h-41c-1,0-1.6,0.3-1.6,1s0.5,0.9,1.4,0.9
				c1.4-0.1,2.8,0,4.2,0.3c0.6,0.2,0.8,2.1,0.8,5.5v43.8c0,2.4-0.2,3.8-0.7,4.1c-0.4,0.4-1.9,0.6-4.5,0.6c-1,0-1.4,0.4-1.4,1.2
				c0,0.8,0.8,1,2.6,1l22.9-0.4l20,0.4c-0.2-0.8-0.4-1.7-0.4-2.6V832c0-0.9,0.1-1.8,0.2-2.6c0.1-1,0.2-1.5,0.2-1.6
				C321.1,825.4,320.7,824.3,319.9,824.3z"/>
		</g>
		<g transform="matrix(1,0,0,1,0.03,-0.03)">
			<path d="M432.5,839.5h-0.7c-4.2,0-6.8-0.4-7.8-1.1c-0.6-0.6-1-2.6-1-6v-59.3c0-9.3,0.2-14.3,0.6-14.9c1-1.2,2.4-1.9,4-2
				c1.5-0.2,3-0.3,4.6-0.3c1.4,0,2-0.4,2-1.3c0-0.5-0.2-0.9-0.6-1.1c-1.5-0.4-3-0.5-4.5-0.4l-17.7,0.1c-0.6,1.6-1.3,3.6-2.1,6
				l-12.8,42c-1.6,5.4-3.2,10.8-4.7,16.3c-8.4-24.6-13.5-39.5-15.4-44.6l-7-20c-1.9,0.1-5.3,0.1-10.1,0.1h-8.4
				c-2.3,0-3.5,0.5-3.5,1.4c0,0.7,0.6,1.1,1.9,1.1c2.3,0.1,4.5,0.4,6.7,1c1,0.4,1.8,1.3,2,2.4c0.2,0.6,0.2,4.4,0.2,11.5v61
				c0,3.7-0.2,6-0.5,6.6c-0.3,0.7-1.4,1-3.4,1c-4.6,0.1-6.8,0.6-6.8,1.4c0,0.8,0.7,1.2,2.2,1.2l13.8-0.5c1,0,2,0.1,3,0.3
				c1,0.2,1.9,0.3,2.9,0.3c1.7,0,2.6-0.5,2.6-1.4c0-0.9-1.3-1.3-4-1.3c-3.3,0-5.1-0.6-5.8-1.7c-0.2-0.2-0.4-8-0.4-23.5v-47.9
				l4.8,13.6c10.8,30.8,17.3,50,19.6,57.7c0.6,2,1.3,3.1,1.8,3.1s1.3-2,2.4-6L396,814c6.1-20.5,10.8-35.9,14-46.2
				c1-2.9,1.4-4.4,1.4-4.5v66c0,5.3-0.2,8.1-0.6,8.5c-0.9,0.9-3.4,1.4-7.4,1.4c-2.3,0-3.5,0.4-3.5,1.3c0,0.9,0.8,1.2,2.5,1.2h29.9
				c1.7,0,2.6-0.4,2.6-1.1S434.1,839.5,432.5,839.5z"/>
		</g>
		<g transform="matrix(1,0,0,1,0.03,-0.03)">
			<path d="M466.9,840.6c-5.1,0-9.1-2.4-12-7.3c-2.9-4.9-4.3-11.7-4.3-20.4c-0.2-6.1,0.8-12.2,2.8-18c2.6-6.8,6.9-10.1,12.7-10.1
				c4.1-0.1,7.9,2,10,5.5c3.8,5.7,5.6,13.4,5.6,23.2C481.7,831.5,476.7,840.6,466.9,840.6z M485.3,791.4c-4.7-5.6-11.6-8.8-18.9-8.7
				c-7.4-0.2-14.5,2.8-19.5,8.3c-5.1,5.5-7.7,12.7-7.6,21.4c-0.2,7.9,2.7,15.5,8,21.3c5,5.6,12.1,8.8,19.6,8.7
				c7.1,0.1,13.9-3.1,18.5-8.6c5.1-5.8,7.8-13.2,7.6-20.9C493,804.4,490.4,797.2,485.3,791.4z"/>
		</g>
		<g transform="matrix(1,0,0,1,0.03,-0.03)">
			<path d="M550.7,783.7c-0.7-0.1-3.3-0.1-7.7-0.1c-4.6,0-7.3,0-8.1,0.1c-0.8,0.1-1.1,0.3-1.1,0.7c0,0.6,0.8,0.9,2.3,0.9h3.3
				c1.1,0,1.8,0.2,1.9,0.5c0.2,1.2,0.3,2.4,0.2,3.7v35.4l-28.3-41.3h-15.3c-1,0-1.6,0.3-1.6,0.8c0,0.6,1,1.1,3,1.1
				c2.8,0,4.7,0.9,5.6,2.6c0.7,1.3,1.1,5.1,1.1,11.5v35.2c0,1.2,0,2.5-0.1,3.7c-0.1,0.6-1.1,1-3,1.2l-1.6,0.1h-1.1
				c-1.5,0-2.3,0.3-2.3,0.8s0.6,0.9,1.9,0.9c1.6,0,3.3-0.1,4.9-0.3c0.8-0.1,1.6-0.1,2.4-0.1s2,0,3.2,0.1c2.3,0.2,3.6,0.3,4,0.3
				c1.8,0,2.6-0.3,2.6-0.9s-0.5-0.8-1.4-0.8h-0.5c-1.5,0-3.1,0-4.6-0.3c-0.8-0.2-1.3-1.8-1.3-5v-40.3c10.5,15.5,17.7,26.1,21.7,31.7
				c0.7,1,1.2,1.7,1.3,1.9c1.2,1.6,2.1,2.9,2.6,3.8c4.8,7.1,7.7,10.7,8.5,10.7c0.7,0,1-0.2,1.1-0.8c0.1-0.5,0.1-2.3,0.1-5.4v-46.9
				c-0.1-1.2,0-2.3,0.2-3.5c0.1-0.3,0.5-0.5,1.3-0.5h3c1.8,0,2.6-0.3,2.6-0.9S551.4,783.8,550.7,783.7z"/>
		</g>
		<g transform="matrix(1,0,0,1,0.03,-0.03)">
			<path d="M612.6,839.5c-1.2,0.1-2.4-0.2-3.5-0.7c-1.6-1.3-3.1-2.7-4.4-4.3l-14.1-15.2c-6.6-7.1-10.4-11.2-11.4-12.4
				c6.6-6.4,11.4-11.2,14.6-14.4c2.2-2.1,3.8-3.7,4.8-4.6c1.6-1.6,3-2.4,4.1-2.3h3.3c1.4,0.1,2.2-0.3,2.2-1.1c0-0.6-0.5-0.9-1.6-1
				c-1-0.1-4.6-0.1-10.8-0.1c-3.4,0-5.4,0-6,0.1c-0.5,0-0.8,0.4-0.8,0.8c0,0,0,0,0,0.1c0,0.7,0.5,1,1.4,1c3.3,0,4.9,0.2,4.9,0.6
				s-7.5,8.2-22.5,22.9v-21c0-1.2,0.1-1.9,0.4-2.1c0.7-0.3,1.5-0.5,2.3-0.4c2.6-0.1,4-0.4,4-1c0-0.6-0.6-1-1.7-1l-4.1,0.1l-5.1-0.1
				l-7.8,0.1c-0.6,0-1.2,0-1.8-0.1h-1.2c-1.1,0-1.7,0.3-1.7,0.9s1,1.1,3.1,1.1s3.2,0.3,3.4,1c0.1,1.3,0.2,2.6,0.1,4v42.6
				c0.1,1.8,0,3.7-0.4,5.5c-0.2,0.5-1.2,0.8-2.8,0.8c-2.3-0.1-3.5,0.3-3.5,1c0,0.8,0.6,1,1.7,1h19.9c1.2,0,1.8-0.3,1.8-0.9
				c0-0.6-0.4-1-1.3-1c-1.6,0.1-3.2-0.1-4.7-0.6c-0.5-0.3-0.7-1.5-0.7-3.6v-22.9c11.2,13,17.7,20.5,19.3,22.4
				c1.8,2.1,2.8,3.4,2.8,3.7c0,0.3-0.8,0.8-2.4,1c-2.6,0.2-4,0.6-4,1.2c0,0.5,0.7,0.7,2.2,0.7h20c0.9,0,1.9,0,2.8-0.1
				c0.3-0.1,0.4-0.4,0.4-0.9C614.1,839.9,613.6,839.5,612.6,839.5z"/>
		</g>
		<g transform="matrix(1,0,0,1,0.03,-0.03)">
			<path d="M658.9,824.3c-0.8,0-1.3,0.6-1.3,1.9c-0.5,7.2-2.4,11.3-5.6,12.2c-2.1,0.6-9,0.9-20.7,1V812h3c5.1,0,8.2,0.4,9.4,1.3
				c1.1,0.8,1.9,3.6,2.4,8.2c0.2,2.1,0.7,3.2,1.4,3.2c0.7,0,1.2-0.7,1.2-2c0-0.4,0-1-0.1-1.6c-0.2-2-0.3-5.8-0.3-11.3
				c0-1.1,0.1-2.7,0.2-4.8c0.1-2.1,0.2-3.7,0.2-4.7c0-1.7-0.4-2.6-1.2-2.6c-0.8,0-1.2,1.2-1.4,3.6c-0.4,4-1.2,6.4-2.4,7.3
				c-1.2,0.9-4.3,1.3-9.4,1.3h-2.9V786h6.1c6.5,0,10.7,0.3,12.4,0.9c3.1,1.1,5.2,4.9,6.3,11.3c0.3,1.7,0.8,2.6,1.6,2.6
				s0.8-0.5,0.8-1.6c0-0.5,0-1-0.1-1.5c-0.5-6.3-0.8-10-1-11.3l-0.1-1.8v-0.9h-41c-1,0-1.6,0.3-1.6,1s0.5,0.9,1.4,0.9
				c1.4-0.1,2.8,0,4.2,0.3c0.6,0.2,0.8,2.1,0.8,5.5v43.8c0,2.4-0.2,3.8-0.7,4.1s-1.9,0.6-4.5,0.6c-1,0-1.4,0.4-1.4,1.2
				c0,0.8,0.8,1,2.6,1l22.9-0.4l20,0.4c-0.2-0.8-0.4-1.7-0.4-2.6V832c0-0.9,0-1.7,0.1-2.6c0.1-1,0.2-1.5,0.2-1.6
				C660.1,825.4,659.7,824.3,658.9,824.3z"/>
		</g>
		<g transform="matrix(1,0,0,1,0.03,-0.03)">
			<path d="M706.4,783.5h-7.6c-1.4,0-2,0.3-2,0.9s0.7,1,2,1h3.2c1.4,0.1,2,0.5,2,1.2c0,0.9-4.1,9.3-12.2,25.4
				c-8.5-15.3-12.7-23.6-12.7-24.9c0-1.1,1.6-1.7,4.8-1.7c2.1,0,3.1-0.3,3.1-0.9s-0.6-1-1.8-1h-23.1c-1,0-1.6,0.3-1.6,1
				s0.5,0.9,1.6,0.9c3.3,0.1,5.3,0.6,6,1.4c1,1.8,1.8,3.4,2.6,4.8c0.8,1.4,1.7,3.3,2.9,5.7l8.3,15.5c1,1.9,1.7,3.4,2.2,4.5v16.9
				c0,2.6-0.2,4-0.5,4.5c-0.4,0.4-1.7,0.7-4.1,0.8c-2.4,0.1-3.5,0.5-3.5,1.2c0,0.7,0.5,0.9,1.6,0.9h22.3c1.1,0,1.7-0.3,1.7-0.9
				c0-0.6-0.7-0.9-2.2-1c-1.7,0-3.3-0.2-4.9-0.7c-0.5-0.3-0.7-1.3-0.7-3v-15.8c-0.1-1.6,0-3.1,0.2-4.7c0.4-1.4,1-2.7,1.8-3.9
				c2.5-4.5,5-9.4,7.5-14.8c2.8-5.9,4.6-9.2,5.3-9.9c0.8-0.7,2.6-1.1,5.3-1.4c1-0.1,1.6-0.4,1.6-0.9
				C715.4,783.5,712.4,783.2,706.4,783.5z"/>
		</g>
		<g transform="matrix(1,0,0,1,0.03,-0.03)">
			<path d="M788.2,802.6c-3.3-4.1-8.7-8.2-16.2-12.1c-6.4-3.4-10.6-6.1-12.5-7.9c-3.5-3.4-5.4-8.2-5.1-13.1c0-4.7,1.2-8.3,3.5-11.1
				c2.4-2.7,5.9-4.2,9.5-4.1c4.2,0.1,8.2,1.9,11,5c3.3,3.4,5.5,7.8,6.2,12.5c0.3,1.9,0.9,2.9,1.8,2.9c0.9,0,1.2-0.5,1.1-1.4l-0.1-2
				c-0.5-3.2-0.6-6.4-0.6-9.7c0-2.5,0.1-4.9,0.4-7.4c0.1-0.5,0.1-1,0.1-1.5c0-1-0.4-1.5-1.2-1.5c-0.8,0-1.2,0.4-1.3,1.3
				c-0.1,0.9-0.3,1.8-0.8,2.7c-0.5,0.4-1.1,0.6-1.7,0.5c-1.3-0.1-2.5-0.5-3.7-1c-4.8-1.9-8.6-2.9-11.3-2.9
				c-6.2-0.2-12.2,2.3-16.4,6.8c-4.3,4.7-6.6,11-6.4,17.4c-0.2,5,1.4,9.9,4.5,13.9c3,3.7,8.2,7.6,15.8,11.5
				c6.3,3.3,10.8,6.6,13.4,10c2.6,3.5,4,7.8,3.8,12.1c0,5.3-1.3,9.5-4,12.4c-2.7,2.9-6.5,4.4-11.3,4.4c-11.5,0-18.2-7.6-20.3-22.9
				c-0.3-2.1-0.9-3.1-1.7-3.1c-0.8,0-1.4,0.6-1.4,1.9c0,0.7,0,1.4,0.1,2c0.2,3.8,0.2,6.3,0.2,7.1c0,4.8-0.3,9.6-1,14.4
				c-0.1,0.5-0.1,1-0.1,1.5c0,1,0.4,1.5,1.2,1.5c0.8,0,1.5-0.6,1.6-1.8c0.2-2.3,0.8-3.5,1.8-3.5c1.3,0.1,2.5,0.5,3.6,1.2
				c6,2.8,11.1,4.2,15.5,4.2c7.1,0.1,13.9-2.7,18.9-7.7c5.1-4.8,8-11.6,7.9-18.6C793.1,811.5,791.4,806.6,788.2,802.6z"/>
		</g>
		<g transform="matrix(1,0,0,1,0.03,-0.03)">
			<path d="M845.9,797.5l-0.2-2.2l-0.4-5.2l-0.4-4.5l-0.1-2.6c-0.8,0.2-1.7,0.4-2.6,0.4c-7.6,0.1-12.6,0.2-15.1,0.2h-28
				c-0.7,7.1-1.1,11.9-1.1,14.3c0,1.9,0.4,2.9,1.1,2.9c0.7,0,1.3-1,1.6-2.9c0.6-5.3,1.9-8.7,3.8-10.1c1.9-1.4,5.9-2.1,12.2-2v45.8
				c0,3.6,0,5.7-0.1,6.4c0,0.6-0.5,1.1-1.1,1.3c-0.6,0.2-1.3,0.3-1.9,0.3c-2.7,0.1-4,0.4-4,1c0,0.6,0.8,0.9,2.4,0.9h19.6
				c1.4,0,2-0.3,2-0.9c0-0.6-1.2-0.9-3.5-1s-3.5-0.9-3.5-2.6v-51.1c1.7-0.1,2.9-0.1,3.7-0.1c5.4,0,8.9,1.5,10.4,4.4
				c1.2,2.6,1.9,5.4,2,8.2c0.1,1.6,0.6,2.3,1.7,2.3s1.4-0.6,1.4-1.7C846,798.8,845.9,798.3,845.9,797.5z"/>
		</g>
		<g transform="matrix(1,0,0,1,0.03,-0.03)">
			<path d="M901.8,783.6h-13.6c-1,0-1.4,0.3-1.4,0.9s0.9,1.1,2.8,1.1c1.1-0.1,2.3,0,3.4,0.4c0.4,0.3,0.6,0.9,0.6,2v30.6
				c0,6-0.6,10.3-1.7,13c-2.2,5.4-6.4,8.1-12.6,8.1c-4.4,0-7.7-1.4-10-4.2c-2-2.5-3-7.8-3-16.1V789c-0.1-1,0-1.9,0.2-2.8
				c0.2-0.3,0.7-0.4,1.6-0.4c3,0.1,4.5-0.3,4.5-1.1s-0.7-1-2.2-1h-19c-1.1,0-1.7,0.3-1.7,0.9s0.8,1,2.6,1c2.1,0,3.3,0.2,3.5,0.6
				c0.3,0.4,0.4,2.9,0.4,7.5v26.8c0,8.5,1.8,14.2,5.4,17.1c3.9,3.2,9.2,4.8,15.7,4.8c7.9,0,13.4-2.7,16.6-8c1.3-2.2,2.2-4.6,2.6-7.1
				c0.4-5.3,0.6-10.5,0.5-15.8V788c0-1.7,0.6-2.6,1.9-2.6h3c1.3,0,1.9-0.3,1.9-0.9C903.7,783.9,903.1,783.6,901.8,783.6z"/>
		</g>
		<g transform="matrix(1,0,0,1,0.03,-0.03)">
			<path d="M931,839.3c-1.8,0.1-3.5,0-5.2-0.5c-0.7-0.3-1-1.3-1-2.8v-44.9c0-2.6,0.2-4.2,0.7-4.6c0.4-0.5,2.7-0.7,6.7-0.7
				c13.4,0,20.1,8.8,20.1,26.3C952.2,830.2,945.1,839.3,931,839.3z M958.8,795.5c-3-4.7-7.5-8.2-12.8-9.9c-4.4-1.4-11.8-2-22.3-2
				h-13.4c-1.4,0-2.2,0.3-2.2,1s0.7,0.9,2.2,0.9c2.4,0.1,3.8,0.4,4.2,0.9c0.3,2.1,0.3,4.3,0.2,6.4v40.6c0.1,1.5,0,3-0.2,4.4
				c-0.2,1-1,1.5-2.6,1.4H909c-1-0.1-1.4,0.2-1.4,0.9s0.7,1.3,2,1.3h23.3c8.2,0,14.8-2,20-5.9c7.2-5.4,10.8-13.1,10.8-23.1
				C963.8,806.5,962.1,800.6,958.8,795.5z"/>
		</g>
		<g transform="matrix(1,0,0,1,0.03,-0.03)">
			<path d="M991.6,839.8c-1.4,0-2.9-0.3-4.3-0.6c-0.6-0.3-1-1-0.9-1.7v-47.9c-0.1-1.2,0-2.4,0.4-3.5c0.2-0.4,0.9-0.6,2-0.6
				c2.7-0.1,4.1-0.4,4.1-0.9c0-0.5-0.6-1-1.9-1h-19.8c-1.1,0-1.6,0.3-1.6,0.9s0.4,0.9,1.1,0.9h3.6c1,0.1,1.6,0.4,1.8,1
				c0.2,1.9,0.3,3.9,0.2,5.8v41.2c0.1,1.8,0,3.7-0.2,5.5c-0.1,0.4-1.4,0.7-3.8,0.9c-1.8,0.1-2.6,0.4-2.6,1c0,0.6,0.7,0.7,2,0.7H992
				c0.7,0,1.1-0.3,1.1-0.8C993.1,840.2,992.6,839.9,991.6,839.8z"/>
		</g>
		<g transform="matrix(1,0,0,1,0.03,-0.03)">
			<path d="M1026.9,840.6c-5.1,0-9.1-2.4-12-7.3c-2.9-4.9-4.3-11.7-4.3-20.4c-0.2-6.1,0.8-12.2,2.8-18c2.6-6.8,6.9-10.1,12.7-10.1
				c4.1-0.1,7.9,2,10,5.5c3.8,5.7,5.6,13.4,5.6,23.2C1041.7,831.5,1036.7,840.6,1026.9,840.6z M1045.3,791.4
				c-4.7-5.6-11.6-8.8-18.9-8.7c-7.4-0.2-14.5,2.8-19.5,8.3c-5.1,5.5-7.7,12.7-7.6,21.4c-0.2,7.9,2.7,15.5,8,21.3
				c5,5.6,12.1,8.8,19.6,8.7c7.1,0.1,13.9-3.1,18.5-8.6c5.1-5.8,7.8-13.2,7.6-20.9C1053,804.4,1050.4,797.2,1045.3,791.4z"/>
		</g>
	</g>
</g>
</svg>
